<?xml version="1.0" encoding="utf-8"?>
<!-- Generator: Adobe Illustrator 26.0.3, SVG Export Plug-In . SVG Version: 6.00 Build 0)  -->
<svg version="1.1" id="Layer_1" xmlns="http://www.w3.org/2000/svg" xmlns:xlink="http://www.w3.org/1999/xlink" x="0px" y="0px"
	 viewBox="0 0 760.9 208.2" style="enable-background:new 0 0 760.9 208.2;" xml:space="preserve">
<style type="text/css">
	.st0{fill:#AC9476;}
	.st1{fill:#403D37;}
	.st2{fill:#FEFEFE;}
	.st3{fill:#FFFFFF;}
	.st4{fill:#45413C;}
	.st5{fill:#E2E2E1;}
	.st6{fill:#423E38;}
	.st7{fill:#433F39;}
	.st8{fill:#3A352F;}
	.st9{fill:#312C26;}
	.st10{fill:#413D38;}
	.st11{fill:#DFDFDF;}
	.st12{fill:#332E28;}
	.st13{fill:#302B24;}
	.st14{fill:#3C3832;}
	.st15{fill:#FDFDFD;}
	.st16{fill:#F8F8F8;}
	.st17{fill:#DFDEDE;}
	.st18{fill:#FBFBFB;}
	.st19{fill:#E7E7E7;}
	.st20{fill:#3F3B36;}
	.st21{fill:#3D3933;}
	.st22{fill:#F2F2F2;}
	.st23{fill:#423E39;}
	.st24{fill:#E6E6E6;}
	.st25{fill:#ECECEC;}
	.st26{fill:#E4E4E3;}
	.st27{fill:#3B3630;}
	.st28{fill:#3B3731;}
	.st29{fill:#3C3732;}
	.st30{fill:#3A3530;}
	.st31{fill:#312C25;}
	.st32{fill:#CAC9C7;}
	.st33{fill:none;stroke:#3F3C36;stroke-width:4;stroke-miterlimit:10;}
	.st34{clip-path:url(#SVGID_00000007430322593253360420000005713619066030267294_);}
</style>
<g id="Toilet_paper_color">
	<path class="st0" d="M622.4,13.9c6.4,0,6.5-10,0-10S615.9,13.9,622.4,13.9z"/>
	<path class="st0" d="M627.2,10.7c0.1-0.3,0.2-0.7,0.2-1c0.1-0.5,0.1-1.1,0-1.6c0-0.3-0.1-0.7-0.2-1c-0.2-0.5-0.4-1-0.6-1.5
		c-0.6-0.9-1.3-1.6-2.2-2.2l-0.2-0.1c-0.4-0.2-0.8-0.4-1.3-0.5c-0.3-0.1-0.6-0.1-0.8-0.1c-0.3,0-0.6-0.1-0.8-0.1
		c-0.7,0-1.3,0.1-1.9,0.4c-0.6,0.2-1.2,0.5-1.6,1c-0.5,0.4-0.8,1-1,1.6c-0.3,0.6-0.5,1.3-0.4,1.9c0,1.3,0.5,2.6,1.5,3.5
		c1,0.9,2.2,1.4,3.5,1.5h0.2l-1.3-0.2l0.2,0.1l-1.2-0.5c0.1,0,0.2,0.1,0.3,0.2l-1-0.8c0.1,0.1,0.2,0.2,0.2,0.2l-0.8-1
		c0,0.1,0.1,0.2,0.1,0.3l-0.5-1.2c0,0.1,0.1,0.2,0.1,0.3l-0.2-1.3c0,0.1,0,0.2,0,0.3l0.2-1.3c0,0.1,0,0.2-0.1,0.3
		c-0.2,0.6-0.2,1.3-0.1,2c0,0.7,0.2,1.3,0.6,1.9c0.3,0.6,0.7,1.1,1.3,1.4c0.5,0.4,1.1,0.7,1.7,0.9c1.3,0.4,2.7,0.2,3.8-0.5l1-0.8
		C626.5,12.3,626.9,11.5,627.2,10.7L627.2,10.7z"/>
</g>
<g id="Layer_3">
	<path class="st1" d="M622.1,43.4h-14.6c-1.3,0-1.8-0.4-1.8-1.8c0-2.2-0.1-4.3,0-6.5c0.1-1.2-0.3-1.5-1.5-1.4
		c-1.3,0.1-2.6,0.3-3.7-0.7c-0.8-0.6-1.3-1.6-1.4-2.6c0-6.7,0-13.4,0-20.1c0.1-1.8,1.6-3.3,3.4-3.3c3.6,0,7.3,0,10.9,0
		c0.8,0,1.2-0.1,1.4-1c1-2.9,3.7-4.8,6.8-4.8c2.8-0.2,5.5,1.1,7,3.5c0.1,0.1,0.2,0.3,0.3,0.5c0.2,1.8,1.4,1.8,2.9,1.8
		c3.3-0.1,6.6,0,10,0c1.9,0,3.4,1.5,3.4,3.4v20c0,1.9-1.6,3.4-3.5,3.4c-1.1,0-2.5-0.5-3.1,0.2s-0.2,2.1-0.2,3.1c0,1.6,0,3.1,0,4.7
		c0,1.1-0.5,1.6-1.6,1.6L622.1,43.4z M622.1,22.1h14.7c1.3,0,1.7,0.4,1.7,1.7c0,2,0,4,0,6c0,0.8,0.3,1.1,1,1c0.3,0,0.6,0,1,0
		c1.3,0,1.7-0.3,1.7-1.7V11.8c0-1.4-0.3-1.7-1.7-1.7c-3.2,0-6.3,0-9.5,0c-0.8-0.1-1.6,0.4-1.7,1.2c0,0,0,0,0,0
		c-1.4,4-5.4,5.6-9.2,4.6c-2.6-0.5-4.6-2.5-5.2-5c-0.1-0.5-0.3-0.8-0.9-0.8c-3.4,0-6.8,0-10.2,0c-0.7-0.1-1.3,0.4-1.4,1
		c0,0.1,0,0.2,0,0.3v1.9c0,5.2,0,10.5,0,15.7c0,1.3,0.3,1.6,1.6,1.6c0.3,0,0.6,0,0.8,0c0.7,0.1,1-0.1,0.9-0.9c-0.1-2,0-4,0-6
		c0-1.3,0.4-1.8,1.8-1.8L622.1,22.1z M622.2,25.1c-4.2,0-8.3,0-12.5,0c-0.7,0-0.9,0.2-0.9,0.9c0,4.4,0,8.9,0,13.3c0,0.8,0.3,1,1,1
		c8.2,0,16.5,0,24.7,0c0.8,0,1-0.2,1-1c0-4.4,0-8.8,0-13.2c0-0.9-0.3-1-1.1-1C630.3,25.2,626.2,25.1,622.2,25.1L622.2,25.1z
		 M626.6,8.6c-0.3-2.3-2.1-4.1-4.4-4.3c-2.3,0.2-4.2,2-4.5,4.3c-0.1,2,2.3,4.3,4.4,4.3C624.4,12.8,626.3,11,626.6,8.6L626.6,8.6z"/>
	<path class="st2" d="M622.2,25.1c4.1,0,8.2,0,12.2,0c0.8,0,1.1,0.2,1.1,1c0,4.4,0,8.8,0,13.2c0,0.8-0.2,1-1,1c-8.2,0-16.5,0-24.7,0
		c-0.7,0-1-0.1-1-1c0-4.4,0-8.9,0-13.3c0-0.7,0.2-0.9,0.9-0.9C613.9,25.2,618,25.1,622.2,25.1z"/>
</g>
<g id="Layer_9">
	<g id="Toilet_Color">
		<path class="st3" d="M719,47.1l-5.4-16.4c-0.8-2.7-3.7-4.2-6.3-3.3c-1.2,0.4-2.2,1.1-2.8,2.2c-2,3-3,6.7-2.7,10.3
			c0.5,6.4,10.5,6.4,10,0c-0.2-1.9,0.3-3.7,1.3-5.3l-9.1-1.2l5.4,16.3C711.4,55.8,721.1,53.2,719,47.1L719,47.1z"/>
		<path class="st3" d="M699.3,19.4c16.8-0.8,33.5-0.8,50.3-0.3c6.4,0.2,6.4-9.8,0-10c-16.8-0.6-33.6-0.5-50.3,0.3
			C692.9,9.7,692.8,19.7,699.3,19.4z"/>
		<path class="st3" d="M740.2,26.7l-1.5,18.5l9.8-1.3l-5.3-21.4c-0.7-2.7-3.5-4.2-6.1-3.5c-0.8,0.2-1.6,0.7-2.2,1.3
			c-7.9,7.9-8.7,19.1-8.5,29.7c0.1,6.4,10.1,6.4,10,0l-0.2-25.5c0-5.7-8.1-6.7-9.8-1.3l-4.7,14.7l9.1-1.2c-1.8-3.6-3-7.5-3.5-11.6
			c-0.7-5.2-8.3-7.3-9.8-1.3l-3.2,12.6l9.1-1.2l-5.8-11.1c-1.8-3.4-6.8-3.1-8.6,0l-5,8.5l9.1,1.2l-1.6-10.5c-0.8-5.3-8.2-4.1-9.6,0
			c-1.3,3.6-0.5,6.8-0.8,10.5c0.1,0.7,0,1.5-0.3,2.1c0.9,0.6,1,0.7,0.1,0.1c-1.4-0.3-2.9-1.6-4.3-2c-2.7-0.7-5.5,0.9-6.2,3.6
			c-0.1,0.4-0.2,0.8-0.2,1.2c0,3.4,0.8,8.1,4,10.1c3.9,2.4,10.2,3.1,14.6,4c9.8,2,19.7,3,29.7,2.9l-4.3-7.5
			c-4.3,9.8-8.9,19.6-13,29.5c-2,4.5-3.5,9.2-4.6,14c-0.5,2.4-0.6,4.8-0.9,7.2c-0.1,1-0.6,2.2-0.6,3.1c0,0.3-0.1,0.6-0.4,0.9
			c-0.4,0.3-0.1,0.5,0.7,0.7c-0.5-3.1-4.9-4.7-7.3-3l-5,3.5l7.5,4.3l1.9-57.3c0.2-5.5-9-7-9.8-1.3c-2,14.3-2.7,30.2,1.2,44.3
			c3.6,12.9,14,18.3,26.8,18.2c5.1,0,12.4,0.3,15.6-4.6c1.5-2.2,1.5-5.1,1.6-7.7c0.3-4,0.5-7.9,0.6-11.9c0.7-16.6,0.5-33.2-0.4-49.7
			c-0.2-4-5.5-6.9-8.5-3.5c-7.2,8-9.5,18.2-9.4,28.7c0.1,13,4.2,26,1,39h9.7c-4.7-21.4-6.6-43.2-5.6-65.1l-9.8,1.3
			c2.1,10.7-0.3,21.4-2.4,31.9s-4.2,21.2-6.9,31.7l9.8,1.3L724.8,44c-0.1-6.5-9.4-6.3-10,0l-3.1,34l-1.5,16.5
			c-0.5,5.1,0,11.5-2.5,16l9.1,1.2c-3.1-21.2-5-42.6-5.5-64l-9.9,1.3c1,4.9,0.5,10-1.5,14.6l9.1,1.2c-1.2-2.9-1-5,0.8-7.5
			c3.7-5.3-5-10.3-8.6-5c-3.2,4.4-3.8,10.2-1.8,15.2c1.4,3.4,7.2,5.6,9.1,1.2c3.1-7,4-14.8,2.4-22.4c-1.1-5.6-10-4.2-9.8,1.3
			c0.6,22.3,2.6,44.6,5.9,66.7c0.7,4.4,7.2,4.7,9.1,1.2c2.7-4.7,2.9-10,3.4-15.3l1.7-18.5l3.5-37.9h-10l1.4,59.8
			c0.1,5.5,8.4,6.9,9.8,1.3c3-11.8,5.3-23.7,7.7-35.6c2.2-11.1,3.8-22.1,1.6-33.4c-1.1-5.7-9.6-4.1-9.8,1.3c-1,22.7,1,45.5,5.9,67.7
			c1.1,4.8,8.5,4.7,9.7,0c2.9-12,0.6-23.6-0.4-35.7c-0.8-9.5-0.5-20.2,6.2-27.6l-8.5-3.5c0.7,11.9,0.9,23.9,0.8,35.8
			c-0.1,6-0.3,12-0.6,17.9c-0.1,1.4,0.4,9.1-0.6,9.9c-0.5,0.5-4.9,0.2-5.6,0.2c-4.4,0.1-9.3,0.1-13.1-2.3c-4.3-2.7-5.6-7.7-6.4-12.4
			c-1.9-11.6-2.1-23.5-0.4-35.2l-9.8-1.3l-1.9,57.3c-0.1,3.6,4.4,6.5,7.5,4.3l5-3.5l-7.3-3c0.8,5.2,6.5,7.6,11.2,6.5
			c6.1-1.4,8.1-7.4,8.7-13c1.7-16.3,10.6-31.5,17.2-46.4c1.5-3.3-0.2-7.5-4.3-7.5c-13.7,0.1-27.4-1.9-40.4-6.1l3,2.3
			c-0.7-0.9-1-2.1-0.8-3.2l-6.3,4.8c2.7,0.8,4.5,2.9,7.6,2.8c2.5-0.2,4.8-1.4,6.4-3.3c4.7-5.3,1.5-11.3,3.5-17.1h-9.6l1.5,10.5
			c0.6,4.5,7.1,4.5,9.1,1.2l5.1-8.5H709l5.8,11.1c2,3.8,8.1,2.9,9.1-1.2l3.2-12.6l-9.8-1.3c0.7,5.8,2.3,11.4,4.9,16.6
			c2,4.1,7.9,2.6,9.1-1.2l4.7-14.7l-9.8-1.3l0.2,25.5h10c-0.1-7.8-0.3-16.7,5.6-22.6l-8.3-2.2l5.3,21.4c1.4,5.7,9.4,4.1,9.8-1.3
			l1.5-18.5C750.8,20.3,740.8,20.3,740.2,26.7L740.2,26.7z"/>
		<path class="st3" d="M529.4,123.1c-0.1-6.8,0.1-13.7,0.6-20.5h-10c0.2,2.2-0.7,4.3-2.5,5.6l8.5,3.5c0.4-7.8,2.2-15.5,5.3-22.7
			c1.4-3.1,3.1-6.1,4.9-9c0.8-1.3,1.6-2.7,2.2-4.1c0.4-0.9,0.7-1.7,1-2.6c0.4-1.3,0.5-1.6,0.2-0.7c5.8-2.9,0.7-11.5-5-8.6
			c-3.5,1.8-3.9,5.1-5.4,8.3c-2,4.3-4.8,8.1-6.8,12.5c-3.7,8.5-5.8,17.6-6.3,26.9c-0.2,4.6,5.5,6.2,8.5,3.5
			c3.7-3.2,5.7-7.8,5.4-12.7c-0.2-6.5-9.5-6.4-10,0c-0.5,6.8-0.8,13.7-0.6,20.5C519.5,129.5,529.5,129.5,529.4,123.1L529.4,123.1z"
			/>
		<path class="st3" d="M533.2,152.8c-0.1-6.8,0.2-13.5,1-20.2c0.5-3.4,1-6.9,1.8-10.3c0.6-2.5,1.8-5.4,1.2-8
			c-1.2-5.2-7.2-6.1-11.3-4.2c-4.7,2-8.1,5.7-8.5,10.9h10l-0.1-4l-9.8,1.3c1,4.8,1.4,9.7,1.4,14.7l8.5-3.5c-1-0.8-1.4-2-1.2-3.2
			l-9.8-1.3c1.1,10.6,2.4,20.9,6.8,30.7c2.6,5.9,11.3,0.8,8.6-5c-3.6-8.1-4.6-17-5.5-25.7c-0.5-5.1-8.7-7.3-9.8-1.3
			c-1.1,4.7,0.3,9.6,3.8,13c2,1.9,5.2,1.8,7.2-0.2c0.9-0.9,1.4-2.1,1.4-3.3c0.1-5.8-0.5-11.6-1.7-17.3c-1.1-5.5-10-4.3-9.8,1.3
			l0.1,4c0.2,6.5,9.6,6.4,10,0c0.4-0.5,1-0.8,1.5-1.2c1.1-0.4,0.8-1-0.8-1.7l-0.5-3.8c-1,6.1-2.6,12.1-3.4,18.3
			c-0.8,6.7-1.2,13.5-1,20.2C523.3,159.3,533.3,159.3,533.2,152.8L533.2,152.8z"/>
		<path class="st3" d="M535.6,172.6l-4.6-7.5c-0.4-0.7-1.3-1-2-0.6c-0.7,0.4-1,1.3-0.6,2c0,0,0,0.1,0.1,0.1l4.7,7.5
			c0.4,0.7,1.3,1,2.1,0.5C535.8,174.2,536.1,173.3,535.6,172.6L535.6,172.6z"/>
	</g>
	<path class="st4" d="M590.6,96.1c1.8-1.3,3.9-0.7,5.8-0.7c33.8-0.1,67.6-0.1,101.3-0.1c1.2-2,0.6-4.2,0.6-6.3
		c0.1-10.3,0.1-20.6,0-30.8c0-1.6,0.5-3.3-0.5-4.8l-3.2-0.9c0.2-0.4,0.6-0.6,1-0.6c-0.9-0.2-1.8-0.1-2.7,0.3c-2-0.4-3.5-1.9-4-3.8
		c0-5-0.7-10.1,0.9-15c1.3-4.2,5.6-1,7.7-3c1.4-2.8,1.3-6.1,0-8.9c-5.7-5.1-5.9-9.6-0.8-15.1c5.2-1,10.5-0.3,15.8-0.4
		c12.4-0.3,24.8,0.5,37.2-0.5c3.2,0.1,4.5,2.7,5.8,5c-0.5,2.3-0.5,4.6-0.1,6.9c-0.4,1.9-1.7,3.4-3.5,4.1c-1.1,0.9-0.7,2.1-0.7,3.2
		c0,26.1,0,52.1,0,78.2c-0.1,0.8,0.1,1.7,0.3,2.4c-0.8,5.4-3.1,7.9-8.2,7.8c-3.4-0.1-5,1.3-6.5,4c-6.6,11.8-10.3,24.4-10.3,38
		c0,12,0,23.9,0,35.9c-0.6,0.6-1,0.4-1.2-0.4c-0.1-13.1,0-26.1,0-35.2c0.2,9.7-0.4,23.4,0.3,37c0,3-1.9,4.6-4.3,5.8
		c-8.5,0.7-17,0.7-25.4,0.1c-1.4-0.4-2.9-0.6-4.4-0.6c-22.7,0-45.4-0.2-68.1,0.1c-3.8,0.6-6.2-0.9-7.1-4.6
		c-1.3-4.2,0.1-7.4,3.3-10.2c6.2-5.4,10.6-12.2,14.2-19.5c1.2-2.5,1.5-3.9-2-4.7c-9.7-2.1-18.7-6.7-26.1-13.3
		c-7.6-6.7-12.9-14.9-14.7-25.2c0.3-0.5,0.5-1.2,0.4-1.8c0-0.4,0.2-0.8-0.1-1.2c0.1,0.5-0.1,0.9-0.5,1.2c-0.8-3.8-1.7-7.3-5.4-10
		c-3.1-2.3-1.6-7.3,2.4-11.2c1.7-0.8,3.6-0.4,5.4-0.4c34.2,0,68.5,0,101.6,0c1.7-0.3,1-1.3,1.2-0.7c0,0-0.1,0-0.1,0.1
		c-0.9,1.2-2.1,0.5-3.2,0.5c-32.8,0-65.6,0-98.4,0C593.1,96.7,591.7,97.1,590.6,96.1z"/>
	<path class="st5" d="M725.9,191.3c0.2-0.2,0.5-0.4,0.8-0.5c0.8,3.2,3.6,3.1,6,3.3c3.5,0.3,6.9,1,10.2,2c1.7,0.5,4.3,0.6,4.2,2.7
		c-0.1,1.9-2.7,2.2-4.4,2.6c-4.7,1-9.3,2.4-14.1,2.7c-13.5,1-27,2.7-40.7,2.1c-4.3-0.8-8.7-0.8-13,0h-5c-4.3-0.8-8.7-0.8-13,0
		c-17.3,0.3-34.7-1-51.8-4c-2.7-0.5-7.2-0.9-7.1-3.2c0-3.2,4.5-2.8,7.2-3.7c3.6-1.2,7.6-0.5,11.1-2.1c1.6,1.7,2.9,4,5.7,3.9l0.8,0.3
		c0.6,0.2,1.1,0.3,1.7,0.4c23.8,0.1,47.7,0.1,71.5,0c7.2,0,14.5,0,21.7-0.1c1.4,0,3,0.8,4.1-0.7l3.1-3.6
		C725.5,192.7,725.2,191.7,725.9,191.3z"/>
	<path class="st6" d="M590.6,96.1l100.8,0.2c1.8-0.1,3.7,0.2,5.4,1H587.9C588.3,95.7,589.6,96.2,590.6,96.1z"/>
	<path class="st7" d="M751.7,105.2c-1.3-1.4-0.8-3.2-0.8-4.8c0-24.7,0-49.4,0-74.1c0-1.7-0.8-3.7,1.2-5c0,23.8-0.1,47.6-0.2,71.4
		C751.8,96.9,751.7,101,751.7,105.2z"/>
	<path class="st8" d="M749.8,5.4c-1.3,1.5-3.1,0.9-4.7,0.9c-16.1,0-32.2,0-48.3,0c0.5-1.2,1.6-1.1,2.5-1.1
		C716.2,5.1,733,4.7,749.8,5.4z"/>
	<path class="st9" d="M697.9,53.3c1.3,0.9,1,2.3,1,3.6c0,11.6,0,23.2,0,34.7c0,1.3,0.3,2.7-1.1,3.6L697.9,53.3z"/>
	<path class="st10" d="M689.9,33.3c-0.5,5,1,10.1-0.9,15C687.8,43.2,686.9,38.1,689.9,33.3z"/>
	<path class="st11" d="M657,206.1c4.2-1.6,8.8-1.6,13,0H657z"/>
	<path class="st11" d="M674.9,206.1c4.2-1.6,8.8-1.6,13,0H674.9z"/>
	<path class="st12" d="M697.5,21.4c2.2,2.9,2.1,5.9,0,8.9L697.5,21.4z"/>
	<path class="st13" d="M755.6,17.2c-1.2-2.1-1.2-4.8,0.1-6.9C756.2,12.6,756.2,15,755.6,17.2z"/>
	<path class="st14" d="M590.9,118.4l0.4-2.9c0.8,2.1,1,3.5-0.2,4.7L590.9,118.4z"/>
	<path class="st14" d="M692.9,52.1c1.3-1.3,2.7-0.7,4.1-0.1l-2.4,0.4L692.9,52.1z"/>
	<path class="st2" d="M746.8,35.3c0.1,23.2,0.1,46.4,0.2,69.7c0,2.1-0.6,3.4-3.1,3.4c-13.1-0.1-26.2-0.1-39.3-0.1
		c-0.8,0.1-1.7-0.3-2.1-1c-0.3-0.6-0.5-1.2-0.6-1.9c-0.2-21.9,0-43.8-0.1-65.8c0-3.7,1.2-5.7,5-5.8c12-0.2,23.9-0.2,35.9,0
		C744.2,33.7,745.7,34.3,746.8,35.3z"/>
	<path class="st2" d="M700.9,126.2c-4.9,14.6-15.8,22.7-29.6,28c-9.4,3.6-18.9,2.5-28.4,2.1c-0.9,0.6-2,0.5-2.8-0.2
		c-9-2.3-17.9-4.8-25.9-9.8c-8.2-5-14.3-12.9-17.1-22.1c0.9-1,2.2-1.6,3.6-1.5c32.1-0.3,64.2-0.2,96.3,0.1
		C698.8,122.8,701.8,122.6,700.9,126.2z"/>
	<path class="st2" d="M622.7,192.3c-3.5-1.2-2.5-3.4-0.7-5.1c4.6-4.7,8.9-9.8,12.8-15.1c2.8-1.1,5.6-0.4,8.4-0.1
		c14,1.4,27.9,1.1,41.4-3.5c1.4-0.5,2.9-0.9,4.3-1.1c2.4-0.2,3.9,0.8,3.9,3.3c0.1,6.1,0.1,12.3,0,18.4c-0.1,3.7-2.5,4-5.5,4
		c-19.9-0.1-39.9,0-59.8,0C625.8,193.1,624.2,193.3,622.7,192.3z"/>
	<path class="st15" d="M722.8,147c-1.3,2.9-0.8,5.9-0.8,8.9c-0.1,10.6-0.1,21.3,0,31.9c0,3.5-1.2,4.7-4.7,4.6
		c-5.7-0.2-11.3-0.1-17-0.1c-1.5,0-2.9,0.1-2.9-2.2c0.2-11.3,0.3-22.6,0.4-33.9c1-0.8,1.1-2.2,1.9-3.1c4.1-4.8,7.5-10.1,10.2-15.9
		c2.4-5,6.8-6.6,11.7-7c1.4-0.1,3.6-0.5,3.4,2.2l-2,10.7C723.4,144.5,723.8,145.8,722.8,147z"/>
	<path class="st11" d="M700.9,126.2c-0.6-3-3.1-2-4.8-2c-33,0-66,0-99,0c-1.5-3.1-2.2-6.5-2.1-10c1.7-0.9,3.6-0.5,5.4-0.5
		c32.4,0,64.7-0.1,97.1-0.1c1.8,0,3.7,0.4,5.4-0.4C705,118.1,702.4,122.1,700.9,126.2z"/>
	<path class="st11" d="M622.7,192.3c21.1-0.1,42.2-0.3,63.3-0.2c4.8,0.1,6.4-1.3,6-6.1c-0.3-4.8-0.3-9.6-0.1-14.5
		c0.1-3.1-1-3.8-3.9-2.6c-12.8,5.1-26.2,5.8-39.6,5.1c-4.6-0.2-9.2-0.4-13.6-2c0.7-1.2,1.4-2.6,1.8-3.9c1.4-6.2,5.1-8.7,11.4-7.1
		c4-0.6,8-0.6,11.9,0c6.1,0,11.7-1.9,17.2-4.1s10.4-5.5,16-10.6v21.9c0.5,7.6,0.5,15.3,0,22.9l-0.3,1.6c-0.7,1.4-2,0.9-3.1,0.9
		c-21.3,0-42.6,0-63.8,0c-1,0-2,0.2-2.8-0.6C622.9,192.8,622.8,192.6,622.7,192.3z"/>
	<path class="st16" d="M697.7,108.2c-34.8,0-69.5,0.1-104.3,0.2c-3.2,0-4.5-1.4-4.5-4.4s1.6-3.9,4.5-3.9
		c34.8,0.1,69.5,0.2,104.3,0.2C698.8,102.8,698.8,105.6,697.7,108.2z"/>
	<path class="st17" d="M746.8,35.3c-13,0-25.9,0.1-38.9-0.1c-3.8-0.1-5.1,0.9-5.1,5c0.1,22.1,0,44.2-0.1,66.2
		c-2.5-1-1.3-3.1-1.3-4.7c-0.1-22-0.1-44-0.1-66c0-3.2,0-6.3,0-9.5c0-1.7,0.1-3.3,1.8-4.3c13.8-0.2,27.5,0,41.3-0.1
		c0.8-0.1,1.7,0.1,2.3,0.6L746.8,35.3z"/>
	<path class="st11" d="M725.1,132.5c-5.1-2.3-11.1-0.2-13.7,4.7c-3.2,6.1-6.1,12.4-11.5,17c-2.3,0-1.4-1.8-1.5-2.8
		c-0.3-3.4,0.3-6.8-0.3-10.1c4.7-7.1,9.1-14.3,9.7-23.1c-0.4-0.7-0.5-1.3,0.2-1.8c0.2-0.2,0.5-0.3,0.7-0.4c1.1-0.6,1.1-2.3,2.9-2.2
		c7.1,0.4,14.2-0.6,21.3,0.5L725.1,132.5z"/>
	<path class="st18" d="M750.9,10.3l0.7,1.1c1,1.6,1.3,3.3-0.2,4.9l-2.8,2c-0.8,0.8-1.8,0.6-2.8,0.6c-14.2,0-28.5,0-42.7,0
		c-1.1,0-2.4,0.5-3.1-0.8l-2-1.6c-0.8-1.6-0.8-3.4-0.1-5l3-2.1c12.2-0.9,24.4-0.1,36.6-0.4c3-0.1,6,0,8.9,0
		C748.1,8.8,749.9,8.5,750.9,10.3z"/>
	<path class="st19" d="M702.9,113.3c-1.7,1.6-3.8,0.9-5.7,0.9c-34,0-68.1,0-102.2,0c0.4-1.4,1.5-1,2.4-1
		C632.6,113.2,667.7,113.3,702.9,113.3z"/>
	<path class="st6" d="M696.4,99H593.2v-0.5h103.7L696.4,99z"/>
	<path class="st6" d="M645,109.5c40.5,0,73.3,0.1,73.3,0.3s-32.8,0.3-73.3,0.3"/>
	<path class="st20" d="M748.7,23.6v81.3h-0.5V23.4L748.7,23.6z"/>
	<path class="st21" d="M622,197c1.2-1.3,2.8-0.8,4.2-0.8c21.8,0,43.6,0,65.3,0c1.5,0,3-0.4,4.2,0.9l-0.8,0.6
		c-0.6,0.3-1.3,0.4-1.9,0.4c-22.6,0.1-45.3,0.1-67.9,0c-1.2,0.1-2.3-0.2-3.3-0.8L622,197z"/>
	<path class="st8" d="M701.9,35.3c0.1,21.9,0.1,43.9,0.2,65.8c0,1.8-0.6,3.7,0.6,5.3c0,0.3-0.1,0.5-0.2,0.8
		c-2.8-0.9-1.7-3.3-1.7-5.1c-0.1-22.3,0-44.6,0-66.8C701.2,34.8,701.6,34.8,701.9,35.3z"/>
	<path class="st8" d="M623.1,193.1l63.3-0.2c2.2,0,4.3-0.1,6.5-0.2c-0.7,1.6-2.1,1.4-3.4,1.4h-65c-0.5,0-0.9-0.1-1.4-0.2
		C623,193.9,623.1,193.4,623.1,193.1z"/>
	<path class="st22" d="M696.8,34.4l1.1,0.9c0.8,4.3,1,8.6-0.2,12.9c-2.5,1.3-4.5,0.3-4.7-2.2c-0.2-3.7-1.2-7.5,0.9-11
		C694.8,34.3,695.5,33.1,696.8,34.4z"/>
	<path class="st8" d="M746.8,22.4l-43.9-0.1c-0.3-0.2-0.4-0.5-0.3-0.7s0.2-0.3,0.3-0.3c13,0,25.9,0,38.8,0
		C743.5,21.3,745.5,20.6,746.8,22.4z"/>
	<path class="st23" d="M725.9,191.3c0.1,0.9,0,1.7-1,2v-41.9h1V191.3z"/>
	<path class="st6" d="M705.2,109.4h38.3v0.5H705L705.2,109.4z"/>
	<path class="st7" d="M723.9,149.2V189H723v-39.9C723.3,148.8,723.6,148.8,723.9,149.2z"/>
	<path class="st24" d="M732.9,114.2c-5.7,0-11.3,0-17,0c-2.6,0-5.2-0.3-7.2,1.7c-0.3-1.8,0.1-2.8,2.2-2.8c7.2,0.1,14.5,0.1,21.7,0.1
		c0.1,0,0.4,0.2,0.4,0.2C733.1,113.8,733,114,732.9,114.2z"/>
	<path class="st25" d="M721.8,196.9c-1.1,1.9-2.9,1.2-4.5,1.2c-7.1,0.1-14.3,0-21.4,0l-0.4-0.4l0.4-0.4l-0.1-0.3L721.8,196.9z"/>
	<path class="st7" d="M693.1,191.1c0-7.6,0-15.3,0-22.9C694.4,175.8,694.4,183.5,693.1,191.1z"/>
	<path class="st20" d="M699.2,193.4h19.7v0.5h-19.7L699.2,193.4z"/>
	<path class="st26" d="M698.1,141.2c1.6,2.5,0.4,5.3,0.8,8c0.2,1.7-0.6,3.6,1,5c-0.4,1-1.1,1.7-2.1,2
		C697.5,151.2,697,146.2,698.1,141.2z"/>
	<path class="st21" d="M702.9,21.3v1c-1.6,4.2,0.1,8.7-1,13h-1c0-3.1,0-6.2,0-9.4C700.9,24,700.8,22.2,702.9,21.3z"/>
	<path class="st9" d="M697.7,48.2l0.2-12.9C699.4,39.6,699.8,43.9,697.7,48.2z"/>
	<path class="st27" d="M659.9,161.1c-4,0.4-8,0.4-11.9,0C651.8,159.7,656,159.7,659.9,161.1z"/>
	<path class="st12" d="M697.7,108.2v-7.9C699.5,102.6,699.5,105.8,697.7,108.2z"/>
	<path class="st28" d="M723.9,149.2c-0.3,0-0.6,0-0.8-0.1l-0.3-2.2c0.1-1.2,0.2-2.5,0.3-3.7C724.6,145,723.6,147.2,723.9,149.2z"/>
	<path class="st14" d="M708,116.4l-0.2,1.8c-1.2-1.2-1.1-2.6-0.3-4.8L708,116.4z"/>
	<path class="st14" d="M640.1,156.1l2.8,0.2c-0.9,1.1-2.2,0.9-3.5,0.8c-0.5,0-0.8-0.4-0.3-0.8C639.5,156.2,639.8,156.2,640.1,156.1z
		"/>
	<path class="st29" d="M696.8,34.4l-2.8,0.7c0.2-1.4,1-1.8,2.3-1.7C696.9,33.4,697.5,33.5,696.8,34.4z"/>
	<path class="st30" d="M750.9,10.3c-1.8-1.2-3.8-0.9-5.8-0.9l-44.2-0.2c1-1.2,2.4-0.9,3.7-0.9c14.1,0,28.3,0,42.4,0
		C748.5,8.4,750.8,7.3,750.9,10.3z"/>
	<path class="st8" d="M700,17.9l48.7,0.2c0.7,1.5-0.6,1.1-1.2,1.1c-14.9,0-29.7,0-44.6,0C701.7,19.3,700.5,19.3,700,17.9z"/>
	<path class="st8" d="M751.5,16.2l0.2-4.9C753.4,13,753.6,14.6,751.5,16.2z"/>
	<path class="st31" d="M697.9,11.3l0.1,5C696.4,14.6,696.4,13,697.9,11.3z"/>
	<path class="st26" d="M695.9,198.1c-1.1,1.4-2.7,1-4.2,1c-21.9,0-43.8,0-65.7,0c-1.4,0-3,0.4-4.1-1c0.7-0.4,1.6-0.5,2.4-0.4h69.1
		C694.3,197.6,695.2,197.8,695.9,198.1L695.9,198.1z"/>
	<path class="st32" d="M695.9,198.1H622c0-0.3,0-0.5-0.1-0.8H696C695.9,197.6,695.9,197.9,695.9,198.1z"/>
</g>
<g id="Letter_Colors_A">
	<path class="st3" d="M115.4,94c-5.6-10.9-10.6-22-15-33.4c-1.9-4.9-10.1-4.7-9.8,1.3l1.8-2.9c-2-1.9-5.2-1.8-7.2,0.2
		c-0.8,0.9-1.3,2.1-1.4,3.3C83,73.8,89.5,82.5,94,92.1c2.5,5.3,3.5,11,5.2,16.5s3.9,11,5.9,16.6c1.5,4.2,2.6,10.8,6.2,13.7
		s7.8,1,11.2-1.4c3.6-2.7,7.9-5.8,7.6-10.9c-0.3-5.3-5.6-10.8-8.4-15.1c-2.5-3.7-9.9-2.8-9.3,2.5c0.6,5.1,0.9,10.3,1,15.5l9.8-1.3
		l-8.5-23.5c-1.3-3.7-2.9-7.4-3.6-11.2c-0.6-3.6-0.2-7.3-0.3-10.9c-0.3-13.3-5-26.7-17.1-33.5c-2-1.1-4.4-0.8-6.1,0.8
		c-0.9,0.8-3.1,0.7-4.2,1.1c-1.8,0.6-3.4,1.7-4.6,3.2c-2.5,3-2.7,7-2.5,10.7c0.3,6.4,10.3,6.4,10,0c-0.2-3.2-0.3-4,2.7-4.9
		c2.1-0.5,4.1-1.5,5.8-3l-6.1,0.8c12.7,7.1,11.4,21.2,12.2,33.6c0.4,6.6,3,12.7,5.2,18.9l7.5,20.6c1.8,5.1,9.9,4.6,9.8-1.3
		c-0.1-5.2-0.4-10.4-1-15.5l-9.3,2.6c1.8,2.7,4.5,5.7,5.7,8.7c0.8,2,1.7,0.5-0.2,2.7c-0.8,0.9-2.6,2.7-3.7,2.5l3.5,1.5
		c-1.9-1.8-2.8-6.9-3.7-9.3l-3.3-9.2c-2.1-5.8-3.7-11.8-5.4-17.7c-3.3-11.2-13.1-21-12.2-33l-8.5,3.5c2.8,2.4,6.2,4.6,10.1,3.3
		c3.3-1,5.4-4.1,5.2-7.5l-9.8,1.3c4.7,12.2,10.1,24.1,16,35.8C109.6,104.8,118.2,99.7,115.4,94L115.4,94z"/>
	<path class="st3" d="M134.4,124c-1.8-6.6-4.5-12.9-8.2-18.7c-1.2-2.2-3.3-3.9-5.8-4.6c-0.6-0.1-1.1-0.1-1.7,0
		c0.8,0.1,0.9-0.3,0.3-1c-1.1-2.2-2-4.4-2.8-6.7l-7.3,5.6c4,2.2,9,4.5,10.6,9.2l9.1-3.8l-13.3-30c-2.6-5.9-11.2-0.8-8.6,5l13.3,30
		c2.3,5.2,10.9,1.5,9.1-3.8c-2.5-7.4-8.5-11.6-15.2-15.2c-3.4-1.8-9.1,1.3-7.3,5.7s4.5,15.8,11.2,15.1c1.3,0.1,1.4-0.1,0.2-0.6
		c-1.2-0.9-1.1-0.6,0.1,0.9c0.6,1.5,1.7,2.9,2.4,4.3c1.8,3.6,3.2,7.3,4.3,11.2C126.5,132.8,136.1,130.2,134.4,124L134.4,124z"/>
	<path class="st3" d="M113.5,71.8c-2.3-10.2-5.1-21.1-13.5-28.1c-7.4-6.2-17.6-7.9-26-2.7C54.1,53.2,60,82.4,45.5,98.4
		c-4.3,4.8,2.7,11.8,7.1,7.1c3.5-3.8,3.5-8,4.9-12.7c1.7-5.5,5.8-10.4,8.9-15.2c3.4-5.2,6.9-10.3,10.3-15.5c1.6-2.4,3.1-5.5,5.1-7.6
		c0.6-0.8,1.5-1.4,2.5-1.7c-0.2,0,3.9,0.7,3.9,0.7l-0.5-3.9c1.1-1,1.2-1.3,0.2-0.8c-0.6,0.2-1.2,0.5-1.8,0.8
		c-0.8,0.4-1.6,0.8-2.3,1.3c-2,1.4-3.8,3.1-5.3,5c-2.9,3.8-5.4,8-7.2,12.5l7.8-1l-0.7-0.7l1.4,3.5L79.9,71c3.4-4.5-4.3-10.5-7.9-6.1
		c-4.1,5-7.7,10.5-10.7,16.2c-1.4,2.7-2.6,5.5-3.7,8.3c-0.4,1-3.1,8.3-2.1,8.1c-2.8,0.4-4.8,2-5,5c-0.3,8.3-2.5,16.5-6.2,23.9
		c-3.6,7.1-7.3,14-10.2,21.4c-5.7,14.5-9.1,29.8-10.2,45.3c-0.2,2.9,2.5,4.8,5,5c10.7,1,14-15.5,16.9-22.8
		c2.3-5.7,4.9-11.4,6.8-17.2c1.4-4.4,1.4-8.8-2-12.2c-2-1.9-5.2-1.9-7.1,0.1c-0.6,0.6-1,1.3-1.2,2.1c-1.2,5-3.5,9.7-6.7,13.7
		l8.4,4.9c2.4-14,7.9-25.1,16.1-36.5l-9.3-2.5L51,137c0.2,5.4,8.7,7.1,9.8,1.3c2.6-13.5,6.7-26.6,12.1-39.2
		c2.6-5.9,5.5-11.7,8.7-17.4c3.1-5.4,7-10.5,5.2-17c-0.8-2.6-3.5-4.2-6.2-3.5C70.3,64.6,63.3,72.7,58,81.9
		c-6,10.6-11.6,21.4-18.3,31.6l9.1,3.9l2.3-8.9h-9.6c1.1,6.1-0.4,12.4-4.2,17.4l9.3,2.5v-8.2c0-5.2-6.6-6.4-9.3-2.5
		c-4.1,5.8-5.2,12.6-6.8,19.4c-1.6,6.9-4.6,13.2-7.8,19.5c-4.8,9.5-15.4,27.4-6.9,37.6c3.3,4,9.7,5.1,13.8,1.6c2-1.7,3.1-4.3,2.9-7
		c-0.2-3-2.2-5-3.1-7.6c-1.9-5.4,6.2-13.2,10-16.5c5.2-4.5,11.5-7.5,18.2-9c5.4-1.2,4.3-10.4-1.3-9.8c-2.7,0.2-5.3,0.8-7.8,1.9
		c-3.9,1.6-5.5,8.8,0,9.6c11.5,1.7,23.2,1.3,34.8,1.2l36.5-0.3c2,0,4.5-1.5,4.8-3.7c1-6.1,1.1-17.4-6-20.2
		c-3.9-1.5-9.2-0.5-13.3-0.4l-15.7,0.3c-10.4,0.2-20.8,0-31.2,0.5c-7.6,0.4-15.4,2.9-17.5,11.1c-0.7,2.7,0.9,5.5,3.6,6.2
		c0.4,0.1,0.8,0.2,1.2,0.2c22.7-0.1,45.3-1.1,67.9-2.7l-3.5-8.5c-0.8,0.8-2,1.3-3.1,1.3l2.7,9.6c4.9-1.8,9.3-4.6,13-8.2
		c2.4-2.5,7.6-8.1,7.5-11.8c0.8-1.1,0.5-1.2-0.8-0.4c-1.5,0.2-1.7,0.8-0.4,1.9c0.2,1.2,1.4,2.6,1.9,3.6c1.5,3,2.9,6.1,4.2,9.3
		c2.4,6.1,4.5,12.3,6.5,18.6c2.1,6,3.7,12.3,4.7,18.6c0.4,2.8-0.2,3.5-3.2,3.4c-2.2,0-4.2-1.1-5.5-2.8c-3.1-4.2-1.9-11.4-3-16.3
		c-1.5-5.7-4.1-11-7.9-15.6c-2.8-3.6-8.6-0.4-8.5,3.5c0.1,8.6,1,17.7,6.6,24.7c4.7,6.2,12.5,9.3,20.1,7.9c2.3-0.4,3.5-2.8,3.7-4.8
		c1.5-19.7-6.3-38.9-21.1-51.9c-3-2.7-6.9-1.3-8.3,2.2c-2.8,6.7,2.7,15.6,5,21.8l9.3,25.1c2.2,6,11.9,3.4,9.6-2.7l-8-21.6l-4-10.8
		c-0.9-2.5-3.4-6.7-2.3-9.3l-8.4,2.2c12.9,11.2,19.6,27.8,18.2,44.8l3.7-4.8c-12,2.1-14-14.9-14.1-22.9l-8.5,3.5
		c2.7,3.5,4.6,7.6,5.5,12c0.8,3.9,0.6,8,1.5,11.9c1.2,6.1,5.7,11.1,11.6,13c5.3,1.6,12.1,0.8,16.2-3.4c5-5.2,1.1-15.9-0.5-21.7
		c-2.3-8.6-5.3-17.2-8.4-25.6c-2.5-6.8-5.3-15.1-10.1-20.6c-4.4-5-10.9-3.7-13.8,2.1c-3.4,6.8-6.8,12.3-14.4,15.2
		c-2.7,0.7-4.2,3.5-3.5,6.1c0.7,2.7,3.5,4.2,6.2,3.5c2.8-0.5,5.5-1.8,7.5-3.9c3.1-2.8,0.7-8.9-3.5-8.5c-22.6,1.6-45.3,2.5-67.9,2.6
		l4.8,6.3c1.4-5.4,11.4-3.8,15.6-3.9l20.6-0.4l19.6-0.3l4.9-0.1h2c2.1,0.2,2.6,0.1,1.5-0.2c-0.9-1.1,0.3,2.5,0.3,3
		c0.3,1.8,0.3,3.6,0,5.4l4.8-3.7l-34.5,0.2c-11.3,0.1-22.9,0.8-34.1-0.9v9.6c1.6-0.8,3.4-1.3,5.2-1.5L55,146
		c-10.6,2.4-20.2,8.1-27.3,16.4c-3.4,4-6.9,8.7-8.3,13.8c-0.7,2.5-0.5,5.2,0.4,7.6c0.4,1,2.9,7.3,4,4.1c0.1-0.3-0.7-2.3-0.7-3
		c0-1.3,0.2-2.7,0.5-4c0.7-3.2,1.7-6.2,3-9.2c2.3-5.4,5.2-10.5,7.7-15.7c2.4-4.9,4.4-10.1,5.7-15.4c1.5-6.2,2.2-12.4,5.9-17.8
		l-9.3-2.5v8.2c0,5.3,6.6,6.4,9.3,2.5c5.2-7.3,7-16.4,5.2-25.1c-0.9-5-8.4-4.6-9.6,0l-2.3,8.9c-1.5,5.6,6.1,8.5,9.1,3.8
		c5.8-8.8,11-17.9,16-27.2C68.7,83.1,73.8,74,83.4,71l-6.2-3.5c0.7,2.6-2.1,5.7-3.3,7.7c-1.6,2.8-3.2,5.6-4.7,8.5
		c-2.8,5.4-5.2,10.9-7.5,16.4c-4.6,11.5-8.2,23.4-10.6,35.5l9.9,1.3l-0.3-9.2c-0.2-5.2-6.5-6.5-9.3-2.5c-8.7,12-14.6,24.2-17.1,38.9
		c-0.7,4.3,4.9,9.2,8.3,4.9c4.3-5.3,7.5-11.5,9.2-18.2l-8.4,2.2c1.3,1.3-5.9,16-6.7,17.9c-1,2.4-5.4,17.4-7.9,17.2l5,5
		c1.1-16,5-31.7,11.4-46.4c3.1-7.1,7.2-13.7,10.3-20.8c3.2-7.5,4.5-15.4,5-23.5l-5,5c7.8-1,8.8-7.5,11.2-13.8
		c3-7.9,7.2-15.2,12.5-21.7l-7.8-6c-2.2,2.9-1.3,6.1,0.9,8.6c2,2.2,6.6,1.9,7.8-1c1.8-4,3.6-8.2,6.5-11.5c2.7-3.1,7-3.5,9.5-6.5
		c7.6-9.1-10.4-14.4-16.7-11.5c-4.2,1.9-6.6,6.2-9.1,9.9c-3.5,5.1-6.9,10.3-10.3,15.4c-3.2,4.9-6.8,9.7-9.6,14.9
		c-1.3,2.4-2.3,4.9-3,7.6c-0.5,2.1-0.3,5-1.9,6.7l7.1,7.1C65,91.7,63.8,71.7,72.9,56.2c4.4-7.4,12.3-11.2,19.8-5.6
		c7.4,5.5,9.3,15.4,11.1,23.8C105.2,80.7,114.8,78.1,113.5,71.8z"/>
</g>
<g id="Letter_Colors_i">
	<path class="st3" d="M183.3,54.3c1.4-2.1,3.6-4.6,6.2-4.8c1.4-0.2,2.7,0,4,0.5c0.6,0.3,0.6,0.3,0.1-0.1c0.1,0.7,0.1,1.3,0.1,2
		c-0.5,1.6-3.7,4.7-5.3,4.6l-0.9-0.5c-1.4-1.3-2-0.7-2,1.8c0.8-0.3,1.6-0.6,2.5-0.8c0.9,0.1,0.9-0.1,0.1-0.7c2,6.1,11.7,3.5,9.6-2.7
		c-1.4-4.5-5.8-7.3-10.5-6.6c-4.2,0.4-9.6,2.3-10.7,6.9s2.1,8.5,5.9,10.6c4.3,2.4,8.8,2.6,12.9-0.2c3.5-2.4,7.1-6.2,8.1-10.4
		c1.1-4.6-0.3-9.8-4.4-12.4c-3.5-2.2-9.1-2.7-13.1-1.8c-4.5,1-8.7,5.8-11.2,9.5C171,54.6,179.7,59.6,183.3,54.3L183.3,54.3z"/>
	<path class="st3" d="M182.6,82.3c-5.4,4.8-7.7,11.5-8.4,18.5c-0.4,4.5,0,9,0.1,13.5s-0.4,9.1-0.1,13.6c0.3,3.8,1.6,7.5,1.9,11.3
		c0.3,4.5,0,9.1,0,13.7c-0.1,9.3-0.9,18.9-0.2,28.1c0.5,7.1,3.9,14.6,11.6,16c7.5,1.3,12.9-5.1,14.8-11.7c2.3-8.2,1-17.6,0.9-26
		l-0.3-27.9c-0.1-10.8,0.1-21.6-0.4-32.4c-0.3-8.2-3.3-16.4-11.9-18.8c-2.7-0.7-5.5,0.9-6.2,3.6c-0.1,0.4-0.2,0.8-0.2,1.2L184,188
		c0,6.6,9.3,6.2,10,0c1.7-14.4-2.2-29.8-4.2-44c-1-7.4-1.9-14.6-1.4-22.1c0.4-7.2,1.1-14-0.2-21.1c-1.1-6.3-10.8-3.7-9.6,2.7
		c1.2,7-0.1,14.2-0.3,21.2c-0.2,6.8,0.8,13.5,1.7,20.1c1.9,14,5.7,29.1,4.1,43.3h10l0.4-102.9l-6.4,4.8c4.3,1.2,4.5,6.3,4.6,10
		c0.2,4.5,0.1,9.1,0.2,13.6l0.3,25.9l0.3,26.9c0,4,0.3,8,0,12c-0.2,2.8-1.8,11.9-6.2,7.4c-2.6-2.6-1.4-9.8-1.3-13l0.2-11.9
		c0.1-8.8,1.1-18.1-0.5-26.7c-0.6-3.3-1.4-6.3-1.3-9.6c0.1-4.4,0.2-8.7,0-13.1c-0.3-7.8-0.9-16.3,5.4-22
		C194.5,85.1,187.4,78,182.6,82.3L182.6,82.3z"/>
</g>
<g id="Letter_Colors_r">
	<path class="st3" d="M251.5,105.8c-0.9-2-2.5-4.7-0.6-6.6h-7.1c1.6,1.9,2.9,4.1,3.8,6.5c1.9,4.8,10.2,4.8,9.8-1.3
		c-0.5-7.9-1.5-18-9.1-22.4c-7.4-4.3-15.5,0.6-18.3,8c-1.6,4.2-1.6,8.7-1.7,13.1c0,5.9-0.1,11.8-0.1,17.7c0,10.8,0.1,21.6,0.5,32.4
		c0.4,10.6,0.5,21.4,2.1,31.8c1.2,7.8,6.6,14.5,15.2,12.6c8.1-1.8,11.8-9.8,12.3-17.4c0.7-10.5-0.4-21.2-0.2-31.8
		c0.2-11.9,1.9-23.8,1.9-35.6c0-4.3-0.9-8.6-3.7-11.9c-3.5-4.2-7.9-6.2-10.6-11.3c-2.1-4-7.9-2.7-9.1,1.2
		c-2.3,7.4-2.2,15.5-2.3,23.2c0,8.1,0.3,16.2,0.6,24.4c0.7,16.6,1.6,33.1,0.4,49.6c-0.3,4.7,5.5,6.1,8.5,3.5
		c9.2-7.8,7.2-24.4,7.1-35.2c-0.2-14.9-0.6-29.9-0.9-44.8l-6.3,4.8c4.5,1.4,9.3,0.8,13.3-1.7c4.4-2.8,6-7.6,8.5-11.9
		c5.2-9,14.9-14.2,25.4-11.2c2.4,0.6,4.6,1.7,6.5,3.3c3.3,3.3-0.6,2.6-3.3,2.3c-6.3-0.6-12.7-1.4-19-1.8c-5.4-0.3-10.2,0.9-14,5.1
		c-4.1,4.7-7.7,10-11.4,15c-3.4,4.5,4,10.2,7.8,6.1c5.5-6,9.7-12.7,14.7-19.1c3.1-4,6.5-3.7,11.3-3.7c3.6,0,9.3-0.9,12.4,1.2
		c5.3,3.7,10.3-5,5-8.6c-4.2-2.9-9.8-2.5-14.7-2.6s-10.8-0.5-15.4,1.7c-4.1,2-6.6,5.8-9,9.5c-3.4,5.1-7.2,9.9-11.4,14.4l7.8,6l7-9.2
		c2.4-3.2,3.8-5.8,8.1-6c7.4-0.3,15.2,1.5,22.6,2c13.8,0.9,16.5-13.9,6.2-21.3c-9-6.5-21.8-6.8-31.6-2c-4.9,2.5-9.1,6.3-12.1,10.9
		c-3.1,4.6-5,13.8-12.2,11.7c-2.7-0.7-5.4,0.8-6.1,3.5c-0.1,0.4-0.2,0.9-0.2,1.3c0.3,13,0.5,26.1,0.8,39.1c0.1,6,0.2,11.9,0,17.9
		c-0.2,5.2,0.3,12.2-4.1,15.9l8.5,3.5c1.1-15.9,0.4-31.8-0.4-47.7c-0.4-7.8-0.7-15.6-0.7-23.4s-0.4-16,1.9-23.5l-9.1,1.2
		c1.9,3.7,4.6,7,7.9,9.6c3.3,2.7,4.9,4.2,5,8.6c0.2,9.2-1.4,18.6-1.7,27.8c-0.4,9.7-0.4,19.4-0.1,29.1c0.1,4.2,0.8,8.8-0.3,12.9
		c-0.9,3.6-4.8,7.7-6.9,2.6c-1.5-3.7-1.1-8.7-1.4-12.6c-0.4-5.2-0.7-10.4-0.9-15.7c-0.4-9.8-0.5-19.6-0.6-29.4
		c0-9.6-0.5-19.4,0.1-29c0.2-3,1.6-10.9,5.9-7.1c2.9,2.6,2.9,9.4,3.1,12.9l9.8-1.3c-1.5-3.9-3.7-7.6-6.4-10.8
		c-1.8-2.1-5.2-1.7-7.1,0c-5.7,5.3-3.9,12.4-1,18.7C245.6,116.6,254.2,111.6,251.5,105.8L251.5,105.8z"/>
</g>
<g id="Letter_Colors_W">
	<path class="st3" d="M330,93.2c0.1,4.2,0.5,8.3,1.1,12.4l4.8-6.3c-1.8,0.2-4.9-7.1-5.5-8.3c-1.8-3.5-3.3-7.2-4.4-11
		c-2.1-7.5-3.6-15.1-4.4-22.8l-2.5,4.3l1.7-1c2.2-1.3,3.4-4.6,1.8-6.8l-4-5.6c-2.7-3.8-9.4-2.8-9.3,2.5v3.5l9.8-1.3
		c-1.3-4.8,4.3-6.8,6.9-2.9c2.1,3.1,2.4,7.8,2.8,11.4c1.3,10.7,2.5,21.6,0.8,32.3l9.1-1.2c-3.4-6.6-3.7-14.2-4.9-21.4
		c-1.4-8.2-3.4-16.2-5.4-24.2c-1-3.9-7.3-5.2-9.1-1.2c-3.9,8.7-5.1,18.4-2.3,27.6c1.5,4.8,4,9.2,6,13.8c2,5,3.5,10.2,4.6,15.5
		c5.1,21.9,12.3,43.1,19.7,64.3c1.2,3.3,4.3,4.3,7.4,3c8.4-3.6,6.2-13.7,4.7-20.7c-2.3-10.6-4.4-21.1-5.8-31.9
		c-1.2-8.9-4.2-17-7.7-25.3c-3.7-8.7-7.4-17.4-7-26.9l-8.5,3.6c3.4,3.3,3.7,8.8,4.5,13.2c1,5.6,1.8,11.1,2.4,16.7
		c1.2,10.8,1.7,21.7,1.7,32.6l8.5-3.5c-8.7-10.6-14.8-23-17.9-36.4c-1.5-6.4-10.5-3.6-9.6,2.6c1.3,8.6,7.5,16.3,6.7,25.2l9.3-2.5
		c-1.9-2.8-3.3-5.9-4.1-9.2l-9.6,2.7c2.4,6.4,4.4,12.9,6,19.6c1.4,6.6,1.5,13.4,3.6,19.9c1.9,6,4.6,11.5,5.7,17.8
		c0.5,3.5,1.4,6.9,2.6,10.2c1.1,2.7,3.4,5.5,3.7,8.5l8.5-3.5l-1.1-1.6c-3.3-5.6-11.5-0.7-8.6,5c3.8,7.6,11.8,12.2,20.3,11.7
		c10.9-0.9,14-11.9,16.6-20.9c1.8-6,6.8-20.9-4.2-21c-5,0-10.5,2.1-15.1,3.8c-2.3,0.9-4.6,1.9-6.9,2.9s-4.8,3.4-7.2,3.5
		c-2.8,0.1-5,2.4-5,5.2c0,0.8,0.2,1.6,0.6,2.4c4,7.3,11.3,20.4,21.6,17c9-3,10.8-16.8,13.3-24.4c1.7-5.1-4.8-7.8-8.4-4.9
		c-1.8,1.6-4.8,5.1-6.5,5.9c-0.8,0.4-4.2-0.2-6,0.7c-4.5,2-8.2,6.9-10.6,11c-1.5,2.3-0.8,5.4,1.6,6.9c1.6,1,3.6,1,5.2,0.1
		c2.8-1.6,6.2-1.7,9.1-0.4c6,2.2,8.6-7.4,2.7-9.6c-5.5-2.1-11.7-1.5-16.8,1.4l6.8,6.8c1.3-2.1,2.8-4.1,4.6-5.8
		c1.6-1.7,1.8-0.2,4.6-0.7c4.6-0.8,9-6.2,12.4-9.1l-8.4-4.9l-3,9.1c-0.6,2-1.3,6-3,7.5c-2,1.8-3.7-1.1-5.1-2.9
		c-2.1-2.8-4-5.7-5.6-8.7l-4.3,7.5c5.8-0.3,10.6-4.4,15.9-6.5c3-1.2,6.1-2.2,9.2-2.9c0.9-0.2,1.7-0.4,2.6-0.6l-1.6-2.3
		c-0.1,0-1,4.9-1,5.2c-0.6,2.9-1.4,5.7-2.4,8.5c-1,2.8-2.2,8.6-5.1,10.1c-4.8,2.3-10.5-2.8-12.5-6.6l-8.6,5c0.8,1.3,1.7,2.5,2.7,3.6
		c2.8,3,9,0.8,8.5-3.5c-0.7-6.5-4.8-11.6-6.1-17.9c-1.4-6.7-3.4-13.3-5.8-19.7c-2.4-6.7-2.5-13.7-3.9-20.6
		c-1.6-6.9-3.7-13.8-6.2-20.5c-2.1-6-11.2-3.7-9.6,2.7c1,4.1,2.7,8.1,5.1,11.6c2.8,4.3,8.9,2.4,9.3-2.5c0.9-10-5.6-18.2-7.1-27.8
		l-9.6,2.7c3.6,15,10.6,29,20.5,40.8c2.9,3.5,8.5,0.5,8.5-3.5c0.1-12.8-0.7-25.6-2.4-38.3c-1.3-9.9-1.4-23.8-9.1-31.3
		c-2.1-1.9-5.3-1.7-7.1,0.4c-0.8,0.9-1.3,2.1-1.3,3.3c-0.5,16.2,8.8,29.6,13.1,44.7c2.4,8.5,2.6,17.4,4.4,26.1
		c0.9,4.4,1.9,8.8,2.9,13.2c0.6,2.7,3.8,10.9,0.5,12.3l7.4,3c-6.8-19.5-13.6-39-18.4-59.1c-2.2-9.1-4.3-17.9-8.3-26.4
		c-4.4-9.2-6.6-18.3-2.2-28l-9.1-1.2c2.2,8.6,4.3,17.3,5.7,26c1.2,7.6,2.1,15,5.6,21.9c1.8,3.6,8.5,3.1,9.1-1.2
		c1.4-9.4,1.5-18.9,0.3-28.3c-0.8-7.3-0.9-16-4.7-22.6c-8.1-14.3-29.7-6.2-25.5,10.1c1.4,5.5,9.9,4.3,9.8-1.3v-3.5l-9.3,2.5l4,5.5
		l1.8-6.8l-1.7,1c-1.6,0.9-2.5,2.5-2.5,4.3c1.3,11,3,21.9,7.1,32.2c2.8,6.8,7.9,21,17.2,20c3.5-0.4,5.4-2.9,4.8-6.3
		c-0.5-3.2-0.8-6.5-0.8-9.8C339.9,86.7,329.9,86.7,330,93.2L330,93.2z"/>
	<path class="st3" d="M384.9,158.9c-0.9-8.5,2.5-17.6,4.5-25.8l5.9-25c0.7-2.7-0.8-5.4-3.5-6.1c-1.7-0.5-3.6,0-4.9,1.3
		c-8,6.9-12.7,16.6-15.4,26.7c-1.5,5.4-2.3,10.9-3.3,16.3c-0.4,2.6-1,5.1-1.8,7.5c-0.4,1.3-0.9,2.5-1.6,3.7
		c-0.6,1.1-3.3,2.9-0.8,2.1l3.9,0.5l-0.9-0.5l2.3,3c-1.8-4.4,1.9-9.4,3.8-13.3c2.2-4.4,3.9-8.8,3.7-13.8c-0.2-4.5-7.2-7.4-9.3-2.5
		l-3.2,7.4c-2,4.7,3.9,10.9,7.9,6.1c4.4-5.4,4.5-12.1,6-18.7c1.9-7.9,4.5-15.6,8-22.9c2.7-5.8-5.9-10.9-8.6-5
		c-3.1,6.5-5.6,13.2-7.6,20.2c-1,3.4-1.8,6.8-2.4,10.3c-0.5,2.7-0.5,6.9-2.4,9.1l7.9,6.1l3.2-7.4l-9.3-2.5
		c0.4,8.2-6.9,14.7-7.8,22.8c-0.4,3.7-0.1,8.1,3.4,10.2c3.9,2.3,7.1-0.3,9.5-3.4c5.8-7.8,6.1-18.1,8.1-27.2
		c2.2-10.4,5.9-20.3,14.1-27.5l-8.4-4.9l-6.4,26.9c-2,8.5-5.3,17.8-4.4,26.6C375.6,165.3,385.6,165.3,384.9,158.9L384.9,158.9z"/>
	<path class="st3" d="M387.6,151.7c-0.4-9.1,3.3-17.4,6-25.9c2.6-8.3,3.8-17,6.3-25.3c5.3-17.2,13.1-34.3,12.6-52.7
		c-0.1-3.3-0.2-6.9-3-9.2s-6-1.7-8.9,0c-6.1,3.5-11.6,8.7-13.5,15.6c-2.1,7.5-1.5,15.5-3.7,23.2c-2.6,8.8-5.7,17.4-9.3,25.8l9.3,2.5
		c0.5-5,1.5-9.9,2.9-14.7c1.4-4.5,3.5-8.8,4.6-13.4c2.2-8.8,4.1-15.7,12.9-20l-7.3-5.7c-4.5,18.6-9.9,37-16.2,55
		c-2.1,6.1,7.5,8.7,9.6,2.7c6.3-18,11.8-36.4,16.2-55c0.7-2.7-1-5.5-3.7-6.1c-1.2-0.3-2.5-0.1-3.6,0.5c-9.2,4.5-14.5,12.7-16.7,22.5
		c-1.2,5.6-3.2,10.7-5,16.1c-2,5.9-2.7,12.1-3.5,18.2c-0.6,4.8,7.4,7,9.3,2.5c4.7-10.9,9.3-22.2,11.8-33.9c1.1-5.3,0.8-10.8,1.9-16
		c0.5-2.7,1.8-5.1,3.7-7c1-1,4.4-4.2,5.9-4.2l-3.5-1.5c-0.1-1-0.1-0.7,0,1.2c0,1.2,0.1,2.5,0,3.7c-0.1,2.7-0.3,5.3-0.7,7.9
		c-0.7,4.3-1.6,8.6-2.9,12.8c-2.6,9.3-6.2,18.3-9,27.5c-2.7,8.9-4,18.1-6.9,26.9c-2.9,8.5-5.9,16.9-5.5,26.1c0.3,6.4,10.3,6.4,10,0
		L387.6,151.7z"/>
	<path class="st3" d="M405,47c1.7,1.6,3.8,2.7,6,3.4c4.5,1.3,7.4-3.6,5.6-7.3c-1-2.3-3.2-4-5.7-4.4c-5.3-1.1-9,6.2-3.9,9.1
		c1.8,0.9,3.6,1.6,5.5,2.2c2.7,1,3.5,2.6,4.6,5.2c1.8,4.8,3.3,9.7,4.3,14.6c1.1,4.8,1.9,9.8,2.5,14.7c0.3,2.7,0.6,5.4,0.9,8.1
		c0.1,1.2,0.2,2.4,0.4,3.6s-0.4,3.4,0.5,1.8l4.3-2.5c0.8-0.1-2.3-2.9-2.9-3.6c-1.2-1.3-2.2-2.8-3.2-4.2c-2.3-3.2-4.6-6.1-5-10.1
		c-0.4-3.6-1.1-7.2-2-10.7c-1.1-4.6-0.6-8.8,0.2-13.4l-8.4,2.2c4,5,4.9,11.8,6,17.8c1.3,7,2.5,14,3.8,21c1.1,6.3,10.8,3.6,9.6-2.7
		c-2.6-14.2-3.1-31.5-12.4-43.2c-2.3-2.9-7.7-1.3-8.4,2.2c-1.1,6.3-1.9,12.4-0.2,18.7c1.6,5.9,1.3,12.4,4.3,17.7
		c2.7,4.8,16.6,26.3,23,15.3c2.5-4.3,0-12.5-0.6-17.2c-0.8-6.4-1.7-12.8-3.2-19.1c-1.2-6.1-3.2-12.1-5.8-17.8
		c-1-2.3-2.6-4.3-4.6-5.8c-2.6-1.9-5.7-2-8.4-3.5l-3.9,9.1l-0.3-0.2l5.6-7.3l-1.6-0.8C407.3,35.7,400.2,42.8,405,47L405,47z"/>
	<path class="st3" d="M412.4,93.1c3.3,10.2,4.9,20.8,7.7,31.2c2.6,9.8,8.6,19.4,9.4,29.5c0.5,6.5,9.3,6.3,10,0
		c1.2-10.4-0.4-20.6-1.8-30.9c-1.6-11.2-1.3-21.8-1.2-33c0-4.2-5.5-6.7-8.5-3.5c-2.6,2.8-5.2,5.8-6.1,9.6c-1.1,4.4,1.4,8.1,1.3,12.3
		c-0.2,5.5,8.9,7,9.8,1.3l0.7-4.5l0.4-2.7l-3.2,1.8c-0.1,0.3,1.3,3.7,1.5,4.2c0.3,1.2,0.6,2.4,0.9,3.6c1.6,6.3,3.1,12.5,4.3,18.9
		c2.1,10.8,2.2,22.6,9.1,31.7c3.3,4.4,10.5,2,9.1-3.9c-1.6-7.1-4.3-14-7.8-20.4c-3.1-5.6-11.7-0.6-8.6,5.1c3.1,5.6,5.4,11.7,6.8,18
		l9.1-3.9c-4.8-6.3-5.6-13.8-6.8-21.4c-1.3-8.8-3.3-17.4-5.4-25.9c-1.5-5.9-2.9-14.4-9.9-16.3c-8.3-2.3-9,7.4-9.9,13l9.8,1.3
		c0.1-2.8-0.9-5-1.3-7.7c-0.5-3.2,1.1-4.9,3.2-7.1l-8.5-3.5c0,10.8-0.4,21.1,1.1,31.9s3.2,21.2,2,32h10c-0.8-10.8-6.4-20.2-9.2-30.5
		c-3-10.9-4.6-22.2-8.1-33C420,84.3,410.4,86.9,412.4,93.1L412.4,93.1z"/>
	<path class="st3" d="M435.6,146.8c-0.4,1.1-0.7,2.2-0.9,3.3c-0.4,2.9-0.4,1.1,2.7,2.6c-3.2-1.5-7.8,0.2-7.5,4.3
		c0.6,11.8,9.5,21.2,10,32.8l9.8-1.3c-1.6-4.4-3.4-8.9-4.5-13.5c-1.3-5.1-0.5-9.5,0.7-14.5l-7.4,3c4.9,2.5,9.6,5.5,12.9,10
		c3,4.2,5.4,11,2.5,15.9l3-2.3c-1.4-0.4-2.9-0.7-4.4-0.9c-0.2,0-3.4,0.3-3.4,0.4l1.8,0.8c-0.1-0.9-0.2-1.8-0.4-2.6
		c-0.9-5.6-2.1-11.1-3.6-16.5l-3.5,6.1c-0.2,0,2.9,7.5,3.3,8.8c0.7,2.2,1.2,4.5,3,6.2c3.8,3.7,9.3,1.8,11-2.9
		c2.1-6.1-7.5-8.7-9.6-2.7l-0.3,0.9l2.3-3l-0.9,0.4l3.9-0.5l1,0.6c-0.2-0.9-0.5-1.7-0.8-2.6c-0.4-1.1-0.8-2.3-1.3-3.4
		c-0.9-2.4-2-4.8-3.4-7c-2.6-3.8-6.1-5.4-10.7-4.5c-2.6,0.5-4.2,3.7-3.5,6.1c1.3,4.6,2.4,9.2,3.2,13.9c0.6,3.7,0.5,8,3.8,10.4
		c3,2.1,6.9,1.1,10.2,1.7c3.7,0.8,6.9-0.1,8.7-3.7c3.6-6.9,1.8-16.3-1.9-22.7c-4-7-10.8-12-17.8-15.6c-2.8-1.4-6.5-0.3-7.3,3
		c-1.4,5.5-2.4,10.8-1.4,16.4c0.9,5.8,3.3,11.4,5.2,16.9c1.8,5,10.1,4.6,9.8-1.3c-0.5-11.9-9.4-21.2-10-32.8l-7.5,4.3
		c3.2,1.5,6.6,1.4,9.3-1.2c3.1-3,2-7,3.5-10.7C447.8,143.5,438.1,140.9,435.6,146.8L435.6,146.8z"/>
	<path class="st3" d="M461.4,196l8.4-5.4l-6.1-7.9c-1.6,1.9-3.5,3.7-5.5,5.3l8.4,2.2c-1.5-5.4-1.1-11.4-1.2-17
		c-0.1-5.9,0.2-11.8,1-17.7c1.8-11.2,6.6-21.8,10.5-32.3c8-21.8,15-44.1,16-67.4c0.1-2.9-2.4-4.8-5-5l-3-0.3l4.8,6.3
		c0.6-3.9,2.7-7.3,5.9-9.6c5.3-3.6,0.7-11.6-5-8.6c1.9-1-0.9-0.9-1.6-0.9c-1.4,0-2.8,0.3-4,1c-2.1,1.2-3.8,3.7-5.1,5.7
		c-3.6,5.7-5,12.3-6.1,18.8c-2.5,16-4.8,32.1-7.2,48.1c-1,6.3,8.7,9,9.6,2.7l6.4-42.6c0.9-6.2,1.5-12.8,4-18.6
		c0.5-1.2,1.1-2.3,1.9-3.4c1.2-1.8,2.3-1.7,0.2-1.6c2.8-0.1,4.1,0.9,6.9-0.6l-5-8.6c-5.4,3.5-9.2,9.1-10.5,15.5
		c-0.7,2.7,1,5.5,3.7,6.2c0.4,0.1,0.7,0.1,1.1,0.1l3,0.3l-5-5c-1.1,24.3-9.1,47.4-17.6,70c-4,10.6-8,20.8-9.3,32.1
		c-0.6,6-0.8,12.1-0.7,18.2c0.1,5.7-0.1,11.4,1.5,17c1.1,3.9,5.5,4.5,8.4,2.2c2-1.6,3.8-3.3,5.5-5.2c3.5-4.1-1-11.1-6.1-7.9
		l-8.4,5.4C450.9,190.9,455.9,199.6,461.4,196L461.4,196z"/>
	<path class="st3" d="M460.4,165.6c-1-9.3,3-17.6,6.2-26.1c3.3-8.9,6-18,8.1-27.2c1.4-6.3-8.2-8.9-9.6-2.7c-2.2,9.9-5.2,19.6-8.8,29
		c-3.3,8.7-6.9,17.4-5.8,26.9C451.1,171.9,461.1,172,460.4,165.6L460.4,165.6z"/>
	<path class="st3" d="M469.4,120.1c-0.1-7.1,3.8-13.3,5-20.1c0.7-2.9,1.5-5.8,2.6-8.5c1.1-3.4,1.5-6.9,3.4-10
		c3.4-5.5-5.2-10.5-8.6-5c-2,3.2-2.8,6.5-3.8,10.1c-1,3.7-2.5,7.1-3.2,10.9c-1.3,7.8-5.5,14.6-5.3,22.8c0.1,6.4,10.1,6.4,10,0
		L469.4,120.1z"/>
	<path class="st3" d="M473.8,183.1c0-14.4,1.7-28.7,3.7-43c0.9-6.3,2.7-12.1,4.4-18.2c1.9-6.8,2.1-13.9,2.2-20.9
		c0.1-6.4-9.9-6.4-10,0c-0.2,7-0.5,13.8-2.6,20.5c-1.9,6.3-3.3,12.8-4.1,19.3c-1.9,14-3.6,28.1-3.6,42.2
		C463.8,189.5,473.8,189.5,473.8,183.1L473.8,183.1z"/>
	<path class="st3" d="M490.7,42.7c0,5.3,2.7,11,8.9,10.4c4-0.4,5.9-3.9,4.3-7.5c-3.7-8.6-14.2,0-15.1,6c-0.5,3.3,0.9,6.9,4,8.5
		c4,2,7.5,0,10.6-2.5l-7.1-7.1c-7.2,8.9-9.2,19.9-11.6,30.8c-2.9,12.9-5.4,25.9-7.7,38.9c-1.1,6.3,8.5,9,9.6,2.7
		c2-11.8,4.3-23.5,6.8-35.1c2.1-9.8,3.4-22.1,9.9-30.2c1.9-2,1.9-5.2-0.1-7.1c-1.9-1.9-5-1.9-6.9,0c1.2,2.5,2.3,3,3.3,1.7
		c1.2-1,0.6-1-1.7,0l-3-2.3l0.4,0.8l4.3-7.5c1.1,1.4,1.5,1.3,1.1-0.4C500.7,36.3,490.7,36.3,490.7,42.7L490.7,42.7z"/>
	<path class="st3" d="M477.9,171.7c0.4-5.2,0.5-10.5,1.4-15.6c0.8-4.9,2.9-9.5,4.3-14.2c3.1-10.1,4.8-20.6,4.9-31.2
		c0.1-6.4-9.9-6.4-10,0c-0.2,10.9-2.1,21.7-5.7,32c-3.3,9.7-4.1,18.9-4.9,29C467.4,178.1,477.4,178,477.9,171.7L477.9,171.7z"/>
	<path class="st3" d="M490.5,115.6c3.4-19.6,7.6-39,12.7-58.2l-9.1,1.2c0.9,1.7-1.1,6.2-1.6,8c-0.7,2.8-1.4,5.6-2.2,8.4
		c-1.5,5.6-3.2,11.2-4.9,16.7c-3.4,10.9-6.4,22.3-11.1,32.7c-2.6,5.8,6,10.9,8.6,5.1c5.5-12.4,9.3-25.9,13.2-38.8
		c2.1-6.8,4-13.6,5.7-20.5c1.3-5.5,3.6-11.3,0.8-16.7c-2-3.8-8.1-2.8-9.1,1.2c-5.1,19.2-9.3,38.6-12.7,58.2
		C479.8,119.3,489.4,122,490.5,115.6L490.5,115.6z"/>
	<path class="st3" d="M429,100.1c0.5,0.7,0.8,1.4,1.1,2.2c0.3,1,0.4,2.1,0.2,3.1c-0.2,2.7,2.5,5,5,5c2.9,0,4.7-2.3,5-5
		c0.4-4.5-1.2-9-4.2-12.4c-1.8-2.1-5.3-1.8-7.1,0C427.1,95,427.1,98.1,429,100.1L429,100.1z"/>
</g>
<g id="Toilet_paper_color-2">
	<path class="st3" d="M537.9,139.7c-0.6-6.3-1.2-12.6-1.6-18.9c-0.1-1.9-3.1-1.9-3,0c0.5,6.3,1,12.6,1.6,18.9c0,0.8,0.7,1.5,1.5,1.5
		S537.9,140.5,537.9,139.7z"/>
	<path class="st3" d="M541.3,162.4c0.8,0,1.5-0.7,1.5-1.5s-0.7-1.5-1.5-1.5s-1.5,0.7-1.5,1.5S540.5,162.4,541.3,162.4z"/>
	<path class="st3" d="M543.8,167.8c0.8,0,1.5-0.7,1.5-1.5s-0.7-1.5-1.5-1.5s-1.5,0.7-1.5,1.5S543,167.8,543.8,167.8z"/>
	<path class="st3" d="M539.8,117.6c0.4-5,1.4-9.9,3.1-14.6H540c0.7,2.3,0.7,4.8,0.2,7.2l3,0.4c-0.3-2.6-0.7-5.9,1.3-8l-2.5-1.5
		c-2.3,7.4-4,14.9-5.1,22.5h2.9c-1.2-2.9-1.9-6.1-2-9.2h-3c0.3,5.3,0.2,10.5-0.2,15.8l2.9-0.4c-0.7-3.6-0.6-7.3,0.3-10.9h-2.9
		c2.2,9,2.3,18.2,3.8,27.3c0.3,1.9,3.2,1.1,2.9-0.8c-1.5-9-1.6-18.3-3.8-27.2c-0.2-0.8-1.1-1.2-1.9-1c-0.5,0.1-0.9,0.5-1,1
		c-1.1,4.1-1.2,8.3-0.3,12.5c0.4,1.8,2.8,1.2,3-0.4c0.4-5.2,0.5-10.5,0.2-15.8c-0.1-1.9-3.1-1.9-3,0c0.1,3.4,0.8,6.8,2.1,10
		c0.5,1.2,2.7,1.7,2.9,0c1.1-7.6,2.8-15.2,5.1-22.5c0.2-0.8-0.3-1.6-1.1-1.8c-0.5-0.1-1,0-1.4,0.4c-2.6,2.8-2.5,6.6-2.1,10.1
		c0.2,1.6,2.5,2.2,3,0.4c0.7-2.9,0.6-5.9-0.2-8.8c-0.2-0.8-1.1-1.2-1.9-1c-0.5,0.1-0.9,0.5-1,1c-1.8,5-2.8,10.1-3.2,15.4
		C536.7,119.4,539.7,119.4,539.8,117.6L539.8,117.6z"/>
	<path class="st3" d="M531.7,124.2v4.5l9.8-1.3c-0.6-2.4-0.6-4.9-0.1-7.4l-9.8-1.3c-0.4,21.6-7.4,43.7,3.4,64l8.6-5.1
		c-3.1-5-6.2-10-8.9-15.3c-1.3-2.5-2.4-5-3.3-7.7c-0.6-1.8-1.2-7.1-2.3-8.4c0.1-0.9-0.1-1.1-0.7-0.5c-0.8,0.6-0.6,0.5,0.6-0.3
		c-0.4-0.7,0.6,1.4,0.6,1.5c1,2.9,1.7,5.9,2.6,8.9c1.6,5.7,3.5,11.2,5.7,16.7c3.7,8.8,9.9,15.1,18.2,19.7s17.5,7.3,25.3,12.8
		l2.5-9.3c-8.3-0.6-16-3.5-23.3-7.4c-6.2-3.3-17.5-8.3-17.2-16.6c0.3-6.4-9.7-6.4-10,0c-0.5,11.8,10.2,18.3,19.1,23.5
		c9.7,5.6,20.1,9.6,31.3,10.5c5.4,0.4,6.2-6.7,2.5-9.3c-9.3-6.5-20.8-9.1-30.1-15.7c-11.1-7.9-13.7-24.1-17.2-36.3
		c-1.5-5.3-4-9.8-10.3-9.1c-5.2,0.6-10.3,4.3-10.2,9.8c0.3,13.4,9.3,26.8,16.1,37.7c3.4,5.5,11.7,0.6,8.6-5.1
		c-9.7-18.1-2.4-39.7-2-58.9c0.1-5.5-8.7-6.9-9.8-1.3c-0.9,4.2-0.9,8.5,0.1,12.7c1.2,5.6,9.8,4.2,9.8-1.3v-4.5
		C541.7,117.8,531.7,117.8,531.7,124.2L531.7,124.2z"/>
	<path class="st3" d="M533.4,135c1.8,9.4,2.5,20.4,6.8,29c2,4,5.3,7.4,8.1,10.8c3,4,6.4,7.7,10,11.1c6.5,5.8,14.1,10.2,22.4,12.9
		c3.8,1.2,8.3,2.6,12.2,1.1s5.8-5.7,8-9.1c1.4-2.4,0.6-5.4-1.8-6.8c-0.8-0.5-1.6-0.7-2.5-0.7c-5.9,0.2-12,0.4-17.6-1.9
		c-5.1-2.2-9.8-5-14.1-8.4c-8.5-6.8-14.9-16.9-21.6-25.3l-6.1,7.9c1.4,0.7,1.9,1,2.2,2.6c1.5,6.2,11.1,3.6,9.7-2.7
		c-0.8-3.8-3.4-6.9-6.8-8.6c-5.3-2.4-9.7,3.4-6.1,7.9c7.8,9.7,15,20.9,25.3,28.1c4.8,3.5,10.1,6.4,15.7,8.5
		c6.2,2.2,12.9,2.1,19.3,1.9l-4.3-7.5c-0.7,1.1-1.6,3.4-2.7,4.2c-0.3,1-0.8,1.1-1.5,0.5c-0.8-0.2-1.6-0.4-2.3-0.6
		c-3.2-0.9-6.4-2.1-9.3-3.6c-6.2-3.2-11.7-7.5-16.2-12.8c-4.3-5-10.2-10.6-12.2-17c-2.4-7.8-3.3-16.2-4.9-24.2
		C541.8,126,532.2,128.7,533.4,135L533.4,135z"/>
	<path class="st3" d="M539.4,81.2l9.7-7.6c3.2-2.5,0.9-7.2-2.2-8.3l-2-0.7v9.7l15.2-3.9c5-1.3,9.9-2.8,15-1.1c6.1,2,8.8-7.6,2.7-9.6
		c-11.2-3.7-24.6,2.2-35.5,5c-5.1,1.3-4.4,8.1,0,9.7l2,0.7l-2.2-8.4l-9.7,7.6C527.2,78.1,534.4,85.1,539.4,81.2L539.4,81.2z"/>
	<path class="st3" d="M549.3,78.6c4.2-4.1,8.5-4.7,14.2-4.9c4.5-0.1,8.7-1.1,11.9-4.5c4.3-4.8-2.7-11.8-7.1-7.1
		c-2.8,3.1-10.1,1.4-14.1,2.4c-4.5,1.2-8.7,3.6-12,7C537.6,76.1,544.7,83.1,549.3,78.6L549.3,78.6z"/>
	<path class="st3" d="M624.2,49.7c-0.2-1-0.3-2-0.2-3c0.1-1.1,0.3-0.7-0.1-0.7c-0.1,0-0.9,0.4-0.9,0.3c0.3,0.2,0.7,0.3,1,0.5
		c1.3,0.7,2.7,1.1,4.2,1.2c5.2,0.2,9.9-5.5,6.7-10.4c-1.4-2.3-4.4-3.1-6.8-1.8c-2.2,1.3-3.3,4.6-1.8,6.8c3.5-2.8,4.3-4.3,2.5-4.7
		c-0.4-0.2-0.8-0.4-1.3-0.6c-1.2-0.6-2.5-1-3.8-1.1c-2.2-0.1-4.3,0.6-6,2c-3.4,2.9-3.9,7.2-3.4,11.3c0.3,2.7,2.1,5,5,5
		C621.6,54.6,624.5,52.3,624.2,49.7L624.2,49.7z"/>
	<path class="st3" d="M591.6,74.9c7.2,1,14.7,0,18.8-6.7c2-3.2,3-6.9,4.3-10.4c1.6-4.3,3.1-8.3,3.3-12.9l-5,5c1,0,13.6-0.6,13.8,0.9
		c-1.3-1.1-1.9-1-1.9,0.2c-0.2,0.8-0.3,1.6-0.6,2.3c-0.6,1.9-1.4,3.6-2.5,5.3c-4.3,6.6-11.6,9.8-19.3,9.6l4.8,6.3
		c0.6-2.4,3.1-3.6,5-4.9c2.1-1.5,4.1-3.2,6-5c3.8-3.7,7.1-7.9,9.8-12.5l-9.1-3.9l-3.4,8.7c-2.4,6,7.3,8.6,9.6,2.7l3.4-8.7
		c2.1-5.4-6.3-8.6-9.1-3.8c-3.1,5.3-7.1,9.9-11.9,13.7c-4.2,3.2-8.6,5.6-9.9,11.1c-0.7,2.7,0.9,5.5,3.6,6.2c0.4,0.1,0.8,0.2,1.2,0.2
		c12.9,0.5,24.8-6.9,30.1-18.6c2-4.5,4.7-12.4,0.6-16.4c-4.4-4.3-14.6-3.5-20.2-3.1c-2.7,0.1-4.9,2.3-5,5c-0.3,4.8-2.8,9.7-4.4,14.2
		c-1.8,4.7-4,6.9-9.4,6.1C587.9,64.4,585.2,74,591.6,74.9L591.6,74.9z"/>
	<path class="st3" d="M538.7,110.4c0.6-8.9,1-17.8,1.2-26.7c0.1-5-6.9-6.8-9.3-2.5c-3.6,6.5-5.4,13.5-7,20.7
		c-1.4,6.4,7.3,8.5,9.6,2.7c3.3-8.2,7.8-15.9,14.1-22.2l-7.8-6.1c-4.4,8.8-3.8,17.4-5.2,26.9c-1,6.3,8.7,9,9.6,2.7
		c1.3-8.3,0.4-16.8,4.2-24.5c2.4-4.9-3.7-10.2-7.8-6.1c-7.6,7.6-12.7,16.7-16.7,26.6l9.6,2.7c1.4-6.3,2.9-12.6,6-18.3l-9.3-2.5
		c-0.2,8.9-0.6,17.8-1.2,26.7C528.2,116.8,538.2,116.8,538.7,110.4L538.7,110.4z"/>
</g>
<g id="Layer_1_00000174582399633434019440000003215943587045895101_">
	<path class="st33" d="M124.4,177.9l-7.4-19.6H53.5l-7.5,20c-2.9,7.8-5.4,13.1-7.5,15.8c-2.1,2.7-5.4,4.1-10.1,4.1
		c-3.9,0-7.7-1.6-10.5-4.3c-2.9-2.5-4.5-6.1-4.6-9.9c0-2.2,0.4-4.5,1.1-6.6c0.7-2.2,1.9-5.4,3.5-9.5L57.9,66.6
		c1.1-2.9,2.5-6.4,4.1-10.5c1.3-3.6,3-7,5.1-10.2c1.8-2.7,4.3-5,7.1-6.5c3.4-1.8,7.1-2.6,10.9-2.5c3.8-0.1,7.6,0.7,11,2.5
		c2.8,1.6,5.3,3.8,7.1,6.4c1.8,2.6,3.4,5.5,4.6,8.5c1.2,3,2.8,7,4.7,12.1L153.4,167c3.2,7.7,4.8,13.2,4.8,16.7c0,3.6-1.5,7-4.5,10
		c-2.9,2.9-6.8,4.6-10.9,4.5c-2.2,0.1-4.4-0.4-6.4-1.3c-1.7-0.9-3.3-2.1-4.5-3.6c-1.6-2.2-2.9-4.5-3.9-7
		C126.6,183.1,125.4,180.3,124.4,177.9z M61.8,134.6h46.6L84.9,70.2L61.8,134.6z"/>
	<path class="st33" d="M189.4,66.6c-3.8,0.1-7.5-1.2-10.4-3.7c-2.9-2.5-4.3-6-4.3-10.5c-0.1-3.9,1.5-7.6,4.4-10.2
		c2.8-2.6,6.5-4,10.3-4c3.7,0,7.2,1.2,10,3.6c2.9,2.4,4.4,5.9,4.4,10.5c0,4.5-1.4,8-4.3,10.5C196.8,65.3,193.2,66.6,189.4,66.6z
		 M203.8,96.6v84c0,5.8-1.4,10.2-4.1,13.2c-2.7,3-6.5,4.6-10.5,4.5c-4,0.1-7.8-1.6-10.4-4.6c-2.7-3-4-7.4-4-13.1V97.4
		c0-5.7,1.3-10.1,4-13c2.7-2.9,6.4-4.5,10.4-4.4c4-0.1,7.8,1.5,10.5,4.4C202.4,87.3,203.8,91.4,203.8,96.6L203.8,96.6z"/>
	<path class="st33" d="M258.1,156.3v24.3c0,5.9-1.4,10.3-4.2,13.2c-2.7,2.9-6.5,4.5-10.5,4.4c-3.9,0.1-7.7-1.5-10.3-4.5
		c-2.7-3-4-7.4-4-13.2V99.7c0-13.1,4.7-19.6,14.1-19.6c4.8,0,8.3,1.5,10.4,4.6c2.1,3,3.3,7.6,3.5,13.5c3.5-6,7-10.5,10.7-13.5
		c3.7-3.1,8.5-4.6,14.6-4.6c6.2,0,12.3,1.6,17.8,4.6c5.8,3.1,8.6,7.1,8.6,12.1c0.1,3.3-1.2,6.5-3.7,8.8c-2.1,2.2-4.9,3.4-7.9,3.5
		c-1.1,0-3.6-0.7-7.7-2c-3.5-1.2-7.1-1.9-10.8-2c-3.8-0.2-7.5,1-10.4,3.3c-2.7,2.2-4.8,5.6-6.3,10c-1.6,5.1-2.7,10.4-3.1,15.7
		C258.4,140.1,258.1,147.5,258.1,156.3z"/>
	<path class="st33" d="M432.7,171l-25.2-93.6L381.9,171c-2,7.1-3.6,12.2-4.7,15.3c-1.3,3.2-3.4,6.1-6.1,8.3
		c-2.9,2.4-6.8,3.7-11.6,3.7c-3.3,0.1-6.7-0.6-9.6-2.2c-2.5-1.5-4.7-3.6-6.1-6.2c-1.7-3-3-6.2-3.8-9.5c-1-3.6-1.9-7-2.7-10.2
		l-26-105.1c-1.6-6.1-2.3-10.7-2.3-13.9c-0.1-3.9,1.5-7.6,4.3-10.3c2.8-2.8,6.6-4.3,10.5-4.2c5.8,0,9.6,1.8,11.6,5.5
		c2,3.7,3.7,9,5.2,16.1l20.4,91.1l22.9-85.3c1.2-5,2.8-10,4.6-14.9c1.4-3.5,3.7-6.5,6.6-8.8c3.1-2.5,7.2-3.7,12.5-3.7
		c5.3,0,9.4,1.3,12.4,3.9c2.7,2.3,4.8,5.2,6.1,8.5c1.1,3,2.7,8.1,4.6,15.1l23.1,85.3l20.4-91.1c0.7-3.8,1.7-7.5,2.8-11.2
		c0.9-2.8,2.5-5.3,4.6-7.3c2.2-2.1,5.3-3.2,9.4-3.2c3.9-0.1,7.7,1.5,10.5,4.2c2.8,2.6,4.4,6.4,4.3,10.3c0,2.9-0.8,7.6-2.4,13.9
		l-26,105.1c-1.8,7.1-3.2,12.3-4.4,15.6c-1.2,3.4-3.3,6.4-6,8.7c-2.8,2.5-6.8,3.7-11.9,3.7c-4.8,0-8.7-1.2-11.6-3.6
		c-2.7-2.1-4.8-4.9-6.1-8.1C436.3,183.5,434.7,178.3,432.7,171z"/>
	<g>
		<defs>
			<rect id="SVGID_1_" x="498.4" y="-0.3" width="183" height="210"/>
		</defs>
		<clipPath id="SVGID_00000132798868714999660480000011484136054267731090_">
			<use xlink:href="#SVGID_1_"  style="overflow:visible;"/>
		</clipPath>
		<g style="clip-path:url(#SVGID_00000132798868714999660480000011484136054267731090_);">
			<path class="st33" d="M596.9,75.2c12,5,24,0,32-9c5-4,5-10,8-23c0.7-3-26.1-1-29-2c-0.9,4-1.5,8-2,12c-1,7-11,15-18,13
				c-4.1-0.5-8.9-6.5-13-7c-10-4-11.3-2.5-20,1c-9.2,3.7-17.2,0.9-24,8s-5.9,5.8-9.5,15.8s-5.5,21.2-5.5,33.8c0,7.7-0.4,18.6,1,25.5
				c1.5,7.9,3.8,15.6,7,23c7.8,17.2,22.4,26,25,28c12.5,9.8,25,10,37,10c3.9,0,29-21,9-21c-21.6,0-33.4-14.4-36-17
				c-15-15-18.2-37.9-15-57c2-12.1,1-6,2-14s0-9,5-17c4.1-6.6,11-4.7,14-4c2.7,0.6,16.3-7.5,19-8C587.4,65.6,585.9,75.2,596.9,75.2z
				"/>
		</g>
	</g>
</g>
<g id="Layer_6">
	<path class="st3" d="M633.8,40.1c0.8,0,1.5-0.7,1.5-1.5s-0.7-1.5-1.5-1.5s-1.5,0.7-1.5,1.5S633,40.1,633.8,40.1z"/>
</g>
<g id="Toilet_Paper_block">
	<path class="st3" d="M611.4,37.3c0.2-1.2,0.3-2.3,0.5-3.5c0-0.4-0.2-0.8-0.4-1.1c-0.3-0.3-0.7-0.4-1.1-0.4c-0.4,0-0.8,0.2-1.1,0.4
		l-0.2,0.3c-0.1,0.2-0.2,0.5-0.2,0.8c-0.1,0.6-0.1,1.2-0.2,1.8l0-0.4c0,0.4-0.1,0.9-0.2,1.3c0,0.2,0,0.4,0,0.6
		c0,0.2,0.1,0.4,0.2,0.6c0.2,0.3,0.5,0.6,0.9,0.7c0.4,0.1,0.8,0.1,1.2-0.2C611.1,38,611.4,37.7,611.4,37.3L611.4,37.3z"/>
	<path class="st3" d="M635.1,38.6c-0.1-0.4-0.3-0.7-0.5-1c-0.2-0.3-0.4-0.6-0.7-0.8c-0.3-0.4-0.7-0.7-1.1-1
		c-0.1-0.1-0.3-0.3-0.5-0.3c-0.2-0.1-0.4-0.1-0.6-0.1c-0.4,0-0.8,0.2-1.1,0.4c-0.3,0.3-0.4,0.7-0.4,1.1c0,0.4,0.1,0.8,0.4,1.1
		c0.5,0.4,0.9,0.8,1.3,1.3l-0.2-0.3c0.2,0.2,0.3,0.5,0.5,0.8l-0.2-0.4c0,0,0,0.1,0,0.1c0,0.2,0.1,0.4,0.3,0.5
		c0.1,0.2,0.3,0.3,0.4,0.4c0.2,0.1,0.4,0.2,0.6,0.2c0.2,0.1,0.4,0.1,0.6,0c0.4-0.1,0.7-0.4,0.9-0.7l0.2-0.3
		C635.2,39.1,635.2,38.9,635.1,38.6L635.1,38.6z"/>
	<path class="st3" d="M619.2,41l0.1,0.4l-1.2,2.2l0.5-0.6l-2.2,1.3l0.7-0.3h-2.7l0.7,0.2l-3-2.3c0.7,1,0.8,3.6,1.1,4.9
		c0.9,4.3,7.1,4.8,9.1,1.2l3.1-5.5l-9.1-1.2c0.6,1.5,1,3,1.4,4.6c0.7,3.3,4.7,4.4,7.3,3c2.5-1.4,4.7-3.4,6.4-5.7l-9.1-1.2l0.9,2.9
		c1.2,3.8,7.2,5.3,9.1,1.2l1.3-2.7l-9.3-2.5l0.1,2.6c0.3,5.3,8.8,7.2,9.8,1.3l0.7-4.3l-9.8-1.3c0,0.9-0.1,1.8-0.3,2.7
		c-1.4,6.3,8.2,8.9,9.6,2.7c0.4-1.8,0.6-3.6,0.7-5.4c0-5.5-8.8-7-9.8-1.3l-0.8,4.2l9.8,1.3l-0.1-2.6c-0.2-4.6-7-7.3-9.3-2.5
		l-1.3,2.7l9.1,1.2l-0.9-2.9c-1.4-4.4-6.6-4.6-9.1-1.2c-0.8,0.9-1.7,1.7-2.8,2.2l7.3,3c-0.3-1.6-0.8-3.1-1.4-4.6
		c-1.5-3.8-6.8-5.2-9.1-1.2l-3.1,5.5l9.1,1.1c-0.9-4.2-1.5-9.9-7.1-9.9c-5.3,0-6.7,5.3-6.1,9.5c0.4,2.7,3.8,4.1,6.2,3.5
		C618.6,46.3,619.5,43.6,619.2,41L619.2,41z"/>
	<path class="st3" d="M618.8,44.6c0.2-2.1,0.2-4.3-0.1-6.4c0-1.3-0.6-2.6-1.5-3.5c-0.9-0.9-2.2-1.5-3.5-1.5c-2.4,0.1-5.4,2.2-5,5
		c0.3,2.1,0.3,4.3,0.1,6.4c-0.3,2.6,2.5,5.1,5,5C616.8,49.5,618.5,47.4,618.8,44.6z"/>
</g>
<g id="Toiler_paper_border">
	<path class="st1" d="M608.8,45.5c0.4-6.9,0.6-13.9,0.4-20.8c0-1.9-3-1.9-3,0c0.1,6.9,0,13.9-0.4,20.8
		C605.7,47.5,608.7,47.5,608.8,45.5z"/>
	<path class="st1" d="M606.1,33.3v0.3c0,0.2,0,0.4,0.1,0.6c0.1,0.4,0.4,0.7,0.8,0.8c0.2,0.1,0.4,0.1,0.6,0.1L608,35
		c0.3-0.1,0.5-0.2,0.7-0.4l0.2-0.3c0.1-0.2,0.2-0.5,0.2-0.8v-0.3c0-0.2,0-0.4-0.1-0.6c-0.1-0.4-0.4-0.7-0.8-0.8
		c-0.2-0.1-0.4-0.1-0.6-0.1l-0.4,0.1c-0.3,0.1-0.5,0.2-0.7,0.4l-0.2,0.3C606.2,32.7,606.1,33,606.1,33.3L606.1,33.3z"/>
	<path class="st1" d="M606.6,47.9c0.8,0,1.5-0.7,1.5-1.5s-0.7-1.5-1.5-1.5s-1.5,0.7-1.5,1.5S605.7,47.9,606.6,47.9z"/>
	<path class="st1" d="M638.9,42.9l-0.4-3.9c0-0.4-0.2-0.8-0.4-1.1c-0.2-0.2-0.5-0.4-0.9-0.4c-0.7-0.1-1.4,0.4-1.6,1.1
		c-0.1,0.7-0.2,1.4-0.2,2.2h3c0-0.8,0-1.7,0.1-2.5l0,0.4c0-0.1,0-0.2,0-0.4c0.1-0.4,0-0.8-0.2-1.2c-0.2-0.3-0.5-0.6-0.9-0.7
		c-0.4-0.1-0.8-0.1-1.2,0.2c-0.3,0.2-0.6,0.5-0.7,0.9c-0.2,1.1-0.3,2.2-0.2,3.3c0,0.8,0.7,1.5,1.5,1.5s1.5-0.7,1.5-1.5
		c0-0.4,0-0.9,0.1-1.3l0,0.4c0-0.2,0-0.3,0.1-0.5l-3-0.4l0.4,3.9c0,0.4,0.2,0.8,0.4,1.1c0.3,0.3,0.7,0.4,1.1,0.4
		C638.2,44.4,638.8,43.7,638.9,42.9L638.9,42.9z"/>
	<path class="st1" d="M635.8,33.8c-0.2,2.8-0.2,5.6,0,8.4c0,0.8,0.7,1.5,1.5,1.5c0.8,0,1.5-0.7,1.5-1.5c-0.2-2.8-0.2-5.6,0-8.4
		c0-0.8-0.7-1.5-1.5-1.5C636.5,32.3,635.9,33,635.8,33.8z"/>
	<path class="st1" d="M638.8,43.2l0.3-10c0-0.8-0.7-1.5-1.5-1.5c-0.8,0-1.5,0.7-1.5,1.5l-0.3,10c0,0.8,0.7,1.5,1.5,1.5
		C638.1,44.7,638.8,44.1,638.8,43.2z"/>
	<path class="st1" d="M608.9,45.5c0-0.3-0.1-0.6-0.1-0.9l0.1,0.4c-0.1-0.5-0.1-1-0.2-1.5c0-0.4-0.2-0.8-0.4-1.1
		c-0.3-0.3-0.7-0.4-1.1-0.4c-0.4,0-0.8,0.2-1.1,0.4c-0.3,0.3-0.4,0.7-0.4,1.1c0.1,0.9,0.2,1.9,0.3,2.8c0,0.2,0.1,0.4,0.3,0.5
		c0.1,0.2,0.2,0.3,0.4,0.4c0.7,0.4,1.6,0.1,2-0.5l0.2-0.4C608.9,46,608.9,45.7,608.9,45.5L608.9,45.5z"/>
	<path class="st1" d="M608.9,46.3c-0.1-1.1,0-2.2,0.1-3.3h-3l0.2,2.6c0,0.4,0.2,0.8,0.4,1.1c0.3,0.3,0.7,0.4,1.1,0.4
		c0.4,0,0.8-0.2,1.1-0.4c0.3-0.3,0.4-0.7,0.4-1.1l-0.2-2.5c0-0.4-0.2-0.8-0.4-1.1c-0.3-0.3-0.7-0.4-1.1-0.4c-0.4,0-0.8,0.2-1.1,0.4
		l-0.2,0.3c-0.1,0.2-0.2,0.5-0.2,0.8c-0.1,1.1-0.1,2.2-0.1,3.3c0,0.4,0.2,0.8,0.4,1.1c0.3,0.3,0.7,0.4,1.1,0.4
		C608.2,47.8,608.9,47.1,608.9,46.3L608.9,46.3z"/>
	<path class="st1" d="M608.3,43.8c0-1.3,0.1-2.5,0.3-3.8l0,0.4c0.1-0.5,0.2-1.1,0.3-1.7c0.1-0.4,0-0.8-0.2-1.2
		c-0.2-0.3-0.5-0.6-0.9-0.7c-0.8-0.2-1.6,0.2-1.8,1c-0.4,1.9-0.6,3.9-0.6,5.8c0,0.8,0.7,1.5,1.5,1.5
		C607.6,45.2,608.3,44.5,608.3,43.8L608.3,43.8z"/>
</g>
</svg>
